<?xml version="1.0" encoding="utf-8"?>
<!-- Generator: Adobe Illustrator 24.1.2, SVG Export Plug-In . SVG Version: 6.00 Build 0)  -->
<svg version="1.1" id="Warstwa_3" xmlns="http://www.w3.org/2000/svg" xmlns:xlink="http://www.w3.org/1999/xlink" x="0px" y="0px"
	 viewBox="0 0 430 430" style="enable-background:new 0 0 430 430;" xml:space="preserve">
<style type="text/css">
	.st0{fill:#e4e4e4;}
	.st1{fill:#ffffff;}
	.st2{fill:#e4e4e4;}
	.st3{fill:none;}
</style>
<g>
	<path class="st1" d="M328.34,353.72c-13.8,0-26.86-5.29-36.77-14.89c-2.38-2.31-2.44-6.1-0.13-8.48c2.31-2.38,6.1-2.44,8.48-0.13
		c7.66,7.42,17.75,11.51,28.41,11.51c22.53,0,40.86-18.33,40.86-40.86S350.87,260,328.34,260l-206.82,0c-3.31,0-6-2.69-6-6
		c0-3.31,2.69-6,6-6l206.82,0c29.15,0,52.86,23.71,52.86,52.86S357.48,353.72,328.34,353.72z"/>
	<path class="st1" d="M261.62,182L54.8,182c-3.31,0-6-2.69-6-6s2.69-6,6-6l0,0l206.82,0c22.53,0,40.86-18.33,40.86-40.86
		s-18.33-40.86-40.86-40.86c-10.67,0-20.76,4.09-28.41,11.51c-2.38,2.31-6.18,2.25-8.48-0.13s-2.25-6.18,0.13-8.48
		c9.91-9.6,22.97-14.89,36.77-14.89c29.15,0,52.86,23.71,52.86,52.86S290.77,182,261.62,182z"/>
	<path class="st0" d="M268.3,221.28h-44.8c-3.31,0-6-2.69-6-6s2.69-6,6-6h44.8c3.31,0,6,2.69,6,6S271.61,221.28,268.3,221.28z"/>
	<path class="st0" d="M161.83,221.28H54.8c-3.31,0-6-2.69-6-6s2.69-6,6-6h107.03c3.31,0,6,2.69,6,6S165.15,221.28,161.83,221.28z"/>
	<path class="st0" d="M100.88,301.34h-44.8c-3.31,0-6-2.69-6-6s2.69-6,6-6h44.8c3.31,0,6,2.69,6,6S104.2,301.34,100.88,301.34z"/>
	<path class="st0" d="M269.58,301.34H162.55c-3.31,0-6-2.69-6-6s2.69-6,6-6h107.03c3.31,0,6,2.69,6,6S272.89,301.34,269.58,301.34z"
		/>
</g>
</svg>
