<svg xmlns="http://www.w3.org/2000/svg" viewBox="0 0 430 430">
  <g style="isolation: isolate">
    <g id="Warstwa_1" data-name="Warstwa 1">
      <g>
        <path d="M336.86,168.87a117.7,117.7,0,0,0-212.75-8.07,36.59,36.59,0,0,0-47.93,34.82,37.25,37.25,0,0,0,.87,7.89,68.52,68.52,0,0,0,31.86,129.18h197a84.84,84.84,0,0,0,31-163.82Z" style="fill: #ffffff"/>
        <path d="M124.12,160.78c-.31-.1-.62-.2-.93-.28-.59-.18-1.18-.34-1.79-.47a33,33,0,0,0-4.22-.77l-1.33-.13-.33,0q-.45,0-.9-.06a5.43,5.43,0,0,0-.57,0c-.41,0-.81,0-1.22,0l0,0,34.44,24.24A36.8,36.8,0,0,0,124.12,160.78ZM337,168.91h0l-.36-.84,0,.23h0l5.44,74.38A111.7,111.7,0,0,0,346.32,215,117.29,117.29,0,0,0,337,168.91Z" style="fill: #ffffff;fill-opacity: 0"/>
        <path d="M138.66,264.15a68.48,68.48,0,0,1,36.67-60.64,37.25,37.25,0,0,1-.87-7.89,36.59,36.59,0,0,1,47.93-34.82,118.16,118.16,0,0,1,54.79-52.49A117.69,117.69,0,0,0,123,160.8,36.59,36.59,0,0,0,75.1,195.62a37.25,37.25,0,0,0,.87,7.89,68.52,68.52,0,0,0,31.86,129.18h99.36A68.54,68.54,0,0,1,138.66,264.15Z" style="fill: #ffffff;opacity: 0.5;mix-blend-mode: multiply"/>
        <path d="M378.48,197.54a88.26,88.26,0,0,0-39-31.37l-.08-.13a121.19,121.19,0,0,0-217.08-9.38l-.16,0a39.15,39.15,0,0,0-4.62-.84c-.5-.05-1-.11-1.41-.14l-.44,0h-.23l-.49,0h-.17c-.23,0-.47,0-.7,0-.44,0-.87,0-1.31,0h0a40,40,0,0,0-39.65,46.16,72,72,0,0,0,35.76,134.53h197a88.35,88.35,0,0,0,72.62-138.65ZM305.86,329.19h-197A65,65,0,0,1,78.68,206.6a3.48,3.48,0,0,0,1.79-3.84,33.8,33.8,0,0,1-.79-7.14A33.16,33.16,0,0,1,112.8,162.5c.8,0,1.6,0,2.39.09l.25,0c.77.06,1.54.16,2.31.27l.36.06c.8.13,1.59.28,2.39.47h0c.85.2,1.68.44,2.51.71l.17,0A33.42,33.42,0,0,1,144,184.45a3.5,3.5,0,0,0,3.29,2.31,3.6,3.6,0,0,0,1.19-.21,3.49,3.49,0,0,0,2.1-4.48A40.5,40.5,0,0,0,129.09,159a114.19,114.19,0,0,1,204.55,11.28,3.39,3.39,0,0,0,.29.53A113.42,113.42,0,0,1,342.82,215a109.63,109.63,0,0,1-4.14,26.72,3.5,3.5,0,0,0,6.74,1.9,114.54,114.54,0,0,0,4.4-28.63,120.47,120.47,0,0,0-6.55-39.38,81.34,81.34,0,0,1-37.41,153.57Z" style="fill: #121331"/>
      </g>
    </g>
  </g>
</svg>
