<svg xmlns="http://www.w3.org/2000/svg" viewBox="0 0 500 500" width="500" height="500"
	preserveAspectRatio="xMidYMid meet"
	style="width: 100%; height: 100%; transform: translate3d(0px, 0px, 0px) scale(1.3); content-visibility: visible;">
	<defs>
		<clipPath id="__lottie_element_7501">
			<rect width="500" height="500" x="0" y="0"></rect>
		</clipPath>
		<clipPath id="__lottie_element_7521">
			<path d="M0,0 L500,0 L500,500 L0,500z"></path>
		</clipPath>
	</defs>
	<g clip-path="url(#__lottie_element_7501)">
		<g clip-path="url(#__lottie_element_7521)" transform="matrix(1,0,0,1,0,0)" opacity="1" style="display: block;">
			<g transform="matrix(1,0,0,1,300.8349914550781,231.0659942626953)" opacity="1" style="display: block;">
				<g opacity="1" transform="matrix(1,0,0,1,0,0)">
					<path fill="rgb(255,199,56)" fill-opacity="1"
						d=" M-75.93399810791016,0 C-75.93399810791016,41.9370002746582 -41.9370002746582,75.93399810791016 0,75.93399810791016 C41.9370002746582,75.93399810791016 75.93399810791016,41.9370002746582 75.93399810791016,0 C75.93399810791016,-41.9370002746582 41.9370002746582,-75.93399810791016 0,-75.93399810791016 C-41.9370002746582,-75.93399810791016 -75.93399810791016,-41.9370002746582 -75.93399810791016,0z">
					</path>
					<path stroke-linecap="round" stroke-linejoin="round" fill-opacity="0" stroke="rgb(18,19,49)"
						stroke-opacity="1" stroke-width="7"
						d=" M-75.93399810791016,0 C-75.93399810791016,41.9370002746582 -41.9370002746582,75.93399810791016 0,75.93399810791016 C41.9370002746582,75.93399810791016 75.93399810791016,41.9370002746582 75.93399810791016,0 C75.93399810791016,-41.9370002746582 41.9370002746582,-75.93399810791016 0,-75.93399810791016 C-41.9370002746582,-75.93399810791016 -75.93399810791016,-41.9370002746582 -75.93399810791016,0z">
					</path>
				</g>
			</g>
			<g transform="matrix(0,1,-1,0,300.8349914550781,355.28399658203125)" opacity="1" style="display: block;">
				<g opacity="1" transform="matrix(1,0,0,1,0,0)">
					<path stroke-linecap="round" stroke-linejoin="round" fill-opacity="0" stroke="rgb(18,19,49)"
						stroke-opacity="1" stroke-width="7" d="M0 0"></path>
				</g>
			</g>
			<g transform="matrix(0.7071067690849304,0.7071067690849304,-0.7071067690849304,0.7071067690849304,388.6703796386719,318.9013671875)"
				opacity="1" style="display: block;">
				<g opacity="1" transform="matrix(1,0,0,1,0,0)">
					<path stroke-linecap="round" stroke-linejoin="round" fill-opacity="0" stroke="rgb(18,19,49)"
						stroke-opacity="1" stroke-width="7"
						d=" M-16.93899917602539,0 C-6.10699987411499,0 6.10699987411499,0 16.93899917602539,0"></path>
				</g>
			</g>
			<g transform="matrix(1,0,0,1,425.052978515625,231.0659942626953)" opacity="1" style="display: block;">
				<g opacity="1" transform="matrix(1,0,0,1,0,0)">
					<path stroke-linecap="round" stroke-linejoin="round" fill-opacity="0" stroke="rgb(18,19,49)"
						stroke-opacity="1" stroke-width="7"
						d=" M-16.93899917602539,0 C-6.10699987411499,0 6.10699987411499,0 16.93899917602539,0"></path>
				</g>
			</g>
			<g transform="matrix(0.7071067690849304,-0.7071067690849304,0.7071067690849304,0.7071067690849304,388.6703796386719,143.23060607910156)"
				opacity="1" style="display: block;">
				<g opacity="1" transform="matrix(1,0,0,1,0,0)">
					<path stroke-linecap="round" stroke-linejoin="round" fill-opacity="0" stroke="rgb(18,19,49)"
						stroke-opacity="1" stroke-width="7"
						d=" M-16.93899917602539,0 C-6.10699987411499,0 6.10699987411499,0 16.93899917602539,0"></path>
				</g>
			</g>
			<g transform="matrix(0,-1,1,0,300.8349914550781,106.84799194335938)" opacity="1" style="display: block;">
				<g opacity="1" transform="matrix(1,0,0,1,0,0)">
					<path stroke-linecap="round" stroke-linejoin="round" fill-opacity="0" stroke="rgb(18,19,49)"
						stroke-opacity="1" stroke-width="7"
						d=" M-16.93899917602539,0 C-6.10699987411499,0 6.10699987411499,0 16.93899917602539,0"></path>
				</g>
			</g>
			<g transform="matrix(-0.7071067690849304,-0.7071067690849304,0.7071067690849304,-0.7071067690849304,212.99960327148438,143.23060607910156)"
				opacity="1" style="display: block;">
				<g opacity="1" transform="matrix(1,0,0,1,0,0)">
					<path stroke-linecap="round" stroke-linejoin="round" fill-opacity="0" stroke="rgb(18,19,49)"
						stroke-opacity="1" stroke-width="7"
						d=" M-16.93899917602539,0 C-6.10699987411499,0 6.10699987411499,0 16.93899917602539,0"></path>
				</g>
			</g>
		</g>
		<g transform="matrix(1.0000014305114746,0,0,1.0000014305114746,94.0001449584961,401.74932861328125)" opacity="1"
			style="display: block;">
			<g opacity="1" transform="matrix(1,0,0,1,0,0)">
				<path fill="rgb(255,255,255)" fill-opacity="1"
					d=" M196.70799255371094,-157.15899658203125 C182.7469940185547,-187.72900390625 151.91400146484375,-208.97500610351562 116.11000061035156,-208.97500610351562 C83.26300048828125,-208.97500610351562 54.04800033569336,-190.43299865722656 38.76300048828125,-163.86900329589844 C20.68899917602539,-168.17599487304688 3.878999948501587,-152.0709991455078 6.576000213623047,-133.69500732421875 C-8.720999717712402,-125.12200164794922 -19.04599952697754,-108.75199890136719 -19.04599952697754,-89.98600006103516 C-19.04599952697754,-62.32500076293945 3.368000030517578,-39.90999984741211 31.02899932861328,-39.90999984741211 C31.02899932861328,-39.90999984741211 175.19900512695312,-39.90999984741211 175.19900512695312,-39.90999984741211 C208.66600036621094,-39.90999984741211 235.79100036621094,-67.03500366210938 235.79100036621094,-100.50199890136719 C235.79100036621094,-126.39800262451172 219.552001953125,-148.49099731445312 196.70799255371094,-157.15899658203125z">
				</path>
			</g>
		</g>
		<g transform="matrix(1.0000014305114746,0,0,1.0000014305114746,160.30239868164062,277.30804443359375)"
			opacity="0.5" style="mix-blend-mode: multiply; display: block;">
			<g opacity="1" transform="matrix(1,0,0,1,0,0)" style="mix-blend-mode: multiply;">
				<path fill="rgb(255,255,255)" fill-opacity="1"
					d=" M-16.83099937438965,35.4109992980957 C-16.83099937438965,16.645000457763672 -6.50600004196167,0.2750000059604645 8.791000366210938,-8.29800033569336 C6.093999862670898,-26.673999786376953 22.90399932861328,-42.77899932861328 40.97800064086914,-38.47200012207031 C50.86600112915039,-55.65700149536133 66.58899688720703,-69.47599792480469 85.3489990234375,-77.0979995727539 C74.46900177001953,-81.87200164794922 62.45100021362305,-84.53199768066406 49.80699920654297,-84.53199768066406 C16.959999084472656,-84.53199768066406 -12.255000114440918,-65.98999786376953 -27.540000915527344,-39.42599868774414 C-45.61399841308594,-43.733001708984375 -62.42399978637695,-27.628000259399414 -59.72700119018555,-9.251999855041504 C-75.02400207519531,-0.6790000200271606 -85.3489990234375,15.690999984741211 -85.3489990234375,34.457000732421875 C-85.3489990234375,62.11800003051758 -62.935001373291016,84.53199768066406 -35.27399826049805,84.53199768066406 C-35.27399826049805,84.53199768066406 23.503999710083008,84.53199768066406 23.503999710083008,84.53199768066406 C0.5090000033378601,79.9990005493164 -16.83099937438965,59.737998962402344 -16.83099937438965,35.4109992980957z">
				</path>
			</g>
		</g>
		<g transform="matrix(2.555000066757202,0,0,2.555000066757202,202,277.583984375)" opacity="1"
			style="display: block;">
			<g opacity="1" transform="matrix(1,0,0,1,0,0)">
				<path stroke-linecap="round" stroke-linejoin="round" fill-opacity="0" stroke="rgb(18,19,49)"
					stroke-opacity="1" stroke-width="2.8"
					d=" M-19.496000289916992,-9.069999694824219 C-20.952999114990234,-13.107000350952148 -24.808000564575195,-16 -29.347000122070312,-16 M34.58599853515625,-13.411999702453613 C36.375,-9.303000450134277 37.367000579833984,-4.76800012588501 37.367000579833984,0 C37.367000579833984,0 37.37799835205078,3.5510001182556152 36.145999908447266,7.908999919891357">
				</path>
			</g>
		</g>
		<g transform="matrix(2.555000066757202,0,0,2.555000066757202,202,277.583984375)" opacity="1"
			style="display: block;">
			<g opacity="1" transform="matrix(1,0,0,1,0,0)">
				<path stroke-linecap="round" stroke-linejoin="round" fill-opacity="0" stroke="rgb(18,19,49)"
					stroke-opacity="1" stroke-width="2.8"
					d=" M34.66299819946289,-13.180000305175781 C29.535999298095703,-25.198999404907227 17.61400032043457,-33.625 3.7219998836517334,-33.625 C-9.26200008392334,-33.625 -20.518999099731445,-26.26099967956543 -26.121999740600586,-15.486000061035156 C-27.139999389648438,-15.817000389099121 -28.225000381469727,-16 -29.354000091552734,-16 C-35.132999420166016,-16 -39.81700134277344,-11.3149995803833 -39.81700134277344,-5.535999774932861 C-39.81700134277344,-4.76200008392334 -39.72700119018555,-4.010000228881836 -39.56800079345703,-3.2839999198913574 C-45.79499816894531,-0.006000000052154064 -50.047000885009766,6.51800012588501 -50.047000885009766,14.043999671936035 C-50.047000885009766,24.857999801635742 -41.279998779296875,33.625 -30.465999603271484,33.625 C-24.732999801635742,33.625 22.198999404907227,33.625 25.80500030517578,33.625 C39.19300079345703,33.625 50.047000885009766,22.77199935913086 50.047000885009766,9.383999824523926 C50.047000885009766,-0.8769999742507935 43.667999267578125,-9.642000198364258 34.66299819946289,-13.180000305175781z">
				</path>
			</g>
		</g>
	</g>
</svg>