<?xml version="1.0" encoding="utf-8"?>
<!-- Generator: Adobe Illustrator 24.1.2, SVG Export Plug-In . SVG Version: 6.00 Build 0)  -->
<svg version="1.1" id="Warstwa_3" xmlns="http://www.w3.org/2000/svg" xmlns:xlink="http://www.w3.org/1999/xlink" x="0px" y="0px"
	 viewBox="0 0 430 430" style="enable-background:new 0 0 430 430;" xml:space="preserve">
<style type="text/css">
	.st0{fill:#d1faf0;}
	.st1{fill:#ffffff;}
	.st2{fill:#d1faf0;}
	.st3{fill:none;}
	.st4{fill:#ff0000;}
</style>
<g>
	<path class="st0" d="M308.43,174.54h4.73c3.31,0,6-2.69,6-6s-2.69-6-6-6h-4.73l9.08-9.08c2.34-2.34,2.34-6.14,0-8.49
		c-2.34-2.34-6.14-2.34-8.49,0l-17.56,17.56h-41.1l28.88-28.88h24.84c3.31,0,6-2.69,6-6s-2.69-6-6-6h-12.84l3.52-3.52
		c2.34-2.34,2.34-6.14,0-8.49c-2.34-2.34-6.14-2.34-8.49,0l-3.52,3.52v-12.84c0-3.31-2.69-6-6-6s-6,2.69-6,6v24.84l-28.88,28.88
		v-40.98l17.56-17.56c2.34-2.34,2.34-6.14,0-8.49c-2.34-2.34-6.14-2.34-8.49,0l-9.08,9.08v-4.83c0-3.31-2.69-6-6-6s-6,2.69-6,6v4.83
		l-9.08-9.08c-2.34-2.34-6.14-2.34-8.49,0c-2.34,2.34-2.34,6.14,0,8.49l17.56,17.56v40.99l-11.35-11.35c-2.34-2.34-6.14-2.34-8.49,0
		c-2.34,2.34-2.34,6.14,0,8.49l11.34,11.34h-7.1c-3.31,0-6,2.69-6,6s2.69,6,6,6h7.1l-11.34,11.34c-2.34,2.34-2.34,6.14,0,8.49
		c1.17,1.17,2.71,1.76,4.24,1.76c1.54,0,3.07-0.59,4.24-1.76l11.35-11.35v41l-17.56,17.56c-2.34,2.34-2.34,6.14,0,8.49
		c1.17,1.17,2.71,1.76,4.24,1.76s3.07-0.59,4.24-1.76l9.08-9.08v4.83c0,3.31,2.69,6,6,6s6-2.69,6-6v-4.83l9.08,9.08
		c1.17,1.17,2.71,1.76,4.24,1.76s3.07-0.59,4.24-1.76c2.34-2.34,2.34-6.14,0-8.49l-17.56-17.56v-40.98l28.88,28.88v24.84
		c0,3.31,2.69,6,6,6s6-2.69,6-6V223.9l3.52,3.52c1.17,1.17,2.71,1.76,4.24,1.76s3.07-0.59,4.24-1.76c2.34-2.34,2.34-6.14,0-8.49
		l-3.52-3.52h12.83c3.31,0,6-2.69,6-6s-2.69-6-6-6h-24.84l-28.89-28.88h41.1l17.56,17.56c1.17,1.17,2.71,1.76,4.24,1.76
		c1.54,0,3.07-0.59,4.24-1.76c2.34-2.34,2.34-6.14,0-8.49L308.43,174.54z"/>
	<path class="st1" d="M220.29,262.09V82.75c0-22.24-18.09-40.33-40.33-40.33s-40.33,18.09-40.33,40.33v179.33
		c-18.15,13.01-28.9,33.79-28.9,56.26c0,38.17,31.06,69.23,69.23,69.23s69.23-31.06,69.23-69.23
		C249.19,295.88,238.45,275.09,220.29,262.09z M179.96,375.58c-31.56,0-57.23-25.67-57.23-57.23c0-19.49,9.78-37.46,26.16-48.06
		c0.01-0.01,0.03-0.02,0.04-0.03c0.1-0.06,0.19-0.13,0.28-0.2c0.07-0.05,0.14-0.1,0.21-0.16c0.07-0.05,0.13-0.11,0.19-0.17
		c0.09-0.08,0.17-0.15,0.25-0.23c0.03-0.03,0.05-0.05,0.07-0.08c0.38-0.39,0.71-0.83,0.96-1.3c0.08-0.15,0.15-0.31,0.22-0.46
		c0.01-0.02,0.02-0.03,0.02-0.05c0.07-0.17,0.14-0.35,0.2-0.54c0,0,0,0,0,0c0.04-0.14,0.08-0.28,0.11-0.42
		c0.01-0.05,0.03-0.1,0.04-0.14c0.02-0.1,0.03-0.21,0.05-0.31c0.01-0.09,0.03-0.19,0.04-0.28c0.01-0.08,0.01-0.16,0.02-0.23
		c0.01-0.12,0.02-0.25,0.02-0.37c0-0.02,0-0.03,0-0.05V82.75c0-15.62,12.71-28.33,28.33-28.33s28.33,12.71,28.33,28.33v182.49
		c0,0.02,0,0.03,0,0.05c0,0.12,0.01,0.25,0.02,0.37c0.01,0.08,0.01,0.16,0.02,0.23c0.01,0.09,0.03,0.19,0.04,0.28
		c0.02,0.1,0.03,0.21,0.05,0.31c0.01,0.05,0.03,0.1,0.04,0.14c0.03,0.14,0.07,0.28,0.11,0.42c0,0,0,0,0,0
		c0.06,0.18,0.12,0.36,0.2,0.54c0.01,0.02,0.02,0.03,0.02,0.05c0.07,0.16,0.14,0.31,0.22,0.46c0.26,0.47,0.58,0.91,0.96,1.3
		c0.03,0.03,0.05,0.06,0.07,0.08c0.08,0.08,0.17,0.15,0.25,0.23c0.06,0.06,0.13,0.12,0.19,0.17c0.07,0.05,0.14,0.1,0.21,0.16
		c0.09,0.07,0.18,0.14,0.28,0.2c0.01,0.01,0.03,0.02,0.04,0.03c16.38,10.61,26.16,28.57,26.16,48.06
		C237.19,349.9,211.52,375.58,179.96,375.58z"/>
	<path class="st4" d="M187.46,303.81v-82.35c0-4.14-3.36-7.5-7.5-7.5s-7.5,3.36-7.5,7.5v82.35c-4.52,2.58-7.57,7.44-7.57,13.02
		c0,8.28,6.72,15,15,15h0.15c8.28,0,15-6.72,15-15C195.03,311.25,191.98,306.39,187.46,303.81z"/>
</g>
</svg>
