<svg xmlns="http://www.w3.org/2000/svg" viewBox="0 0 500 500" width="500" height="500"
	preserveAspectRatio="xMidYMid meet"
	style="width: 100%; height: 100%; transform: translate3d(0px, 0px, 0px) scale(1.3); content-visibility: visible;">
	<defs>
		<clipPath id="__lottie_element_7551">
			<rect width="500" height="500" x="0" y="0"></rect>
		</clipPath>
	</defs>
	<g clip-path="url(#__lottie_element_7551)">
		<g transform="matrix(1,0,0,1,0,0)" opacity="1" style="display: block;">
			<g opacity="1" transform="matrix(1,0,0,1,305.9230041503906,197.0760040283203)">
				<path stroke-linecap="round" stroke-linejoin="round" fill-opacity="0" stroke="rgb(18,19,49)"
					stroke-opacity="1" stroke-width="7"
					d=" M0,77.27799987792969 C0,77.27799987792969 0,-77.27799987792969 0,-77.27799987792969"></path>
			</g>
			<g opacity="1" transform="matrix(1,0,0,1,305.9230041503906,197.0760040283203)">
				<path stroke-linecap="round" stroke-linejoin="round" fill-opacity="0" stroke="rgb(18,19,49)"
					stroke-opacity="1" stroke-width="7"
					d=" M-77.27799987792969,0 C-77.27799987792969,0 77.27799987792969,0 77.27799987792969,0"></path>
			</g>
			<g opacity="1" transform="matrix(1,0,0,1,305.9230041503906,197.0760040283203)">
				<path stroke-linecap="round" stroke-linejoin="round" fill-opacity="0" stroke="rgb(18,19,49)"
					stroke-opacity="1" stroke-width="7"
					d=" M-54.64400100708008,-54.64400100708008 C-54.64400100708008,-54.64400100708008 54.64400100708008,54.64400100708008 54.64400100708008,54.64400100708008">
				</path>
			</g>
			<g opacity="1" transform="matrix(1,0,0,1,305.9230041503906,197.0760040283203)">
				<path stroke-linecap="round" stroke-linejoin="round" fill-opacity="0" stroke="rgb(18,19,49)"
					stroke-opacity="1" stroke-width="7"
					d=" M-54.64400100708008,54.64400100708008 C-54.64400100708008,54.64400100708008 54.64400100708008,-54.64400100708008 54.64400100708008,-54.64400100708008">
				</path>
			</g>
			<g opacity="1" transform="matrix(1,0,0,1,0,0)">
				<g opacity="1" transform="matrix(1,0,0,1,296.2640075683594,129.45700073242188)">
					<path stroke-linecap="round" stroke-linejoin="round" fill-opacity="0" stroke="rgb(18,19,49)"
						stroke-opacity="1" stroke-width="7"
						d=" M9.65999984741211,9.65999984741211 C9.65999984741211,9.65999984741211 -9.65999984741211,-9.65999984741211 -9.65999984741211,-9.65999984741211">
					</path>
				</g>
				<g opacity="1" transform="matrix(1,0,0,1,315.5830078125,129.45700073242188)">
					<path stroke-linecap="round" stroke-linejoin="round" fill-opacity="0" stroke="rgb(18,19,49)"
						stroke-opacity="1" stroke-width="7"
						d=" M-9.65999984741211,9.65999984741211 C-9.65999984741211,9.65999984741211 9.65999984741211,-9.65999984741211 9.65999984741211,-9.65999984741211">
					</path>
				</g>
			</g>
			<g opacity="1" transform="matrix(1,0,0,1,0,0)">
				<g opacity="1" transform="matrix(1,0,0,1,346.8030090332031,142.53500366210938)">
					<path stroke-linecap="round" stroke-linejoin="round" fill-opacity="0" stroke="rgb(18,19,49)"
						stroke-opacity="1" stroke-width="7"
						d=" M0,13.66100025177002 C0,13.66100025177002 0,-13.66100025177002 0,-13.66100025177002"></path>
				</g>
				<g opacity="1" transform="matrix(1,0,0,1,360.4639892578125,156.1959991455078)">
					<path stroke-linecap="round" stroke-linejoin="round" fill-opacity="0" stroke="rgb(18,19,49)"
						stroke-opacity="1" stroke-width="7"
						d=" M-13.66100025177002,0 C-13.66100025177002,0 13.66100025177002,0 13.66100025177002,0"></path>
				</g>
			</g>
			<g opacity="1" transform="matrix(1,0,0,1,0,0)">
				<g opacity="1" transform="matrix(1,0,0,1,265.04400634765625,142.53500366210938)">
					<path stroke-linecap="round" stroke-linejoin="round" fill-opacity="0" stroke="rgb(18,19,49)"
						stroke-opacity="1" stroke-width="7"
						d=" M0,13.66100025177002 C0,13.66100025177002 0,-13.66100025177002 0,-13.66100025177002"></path>
				</g>
				<g opacity="1" transform="matrix(1,0,0,1,251.38299560546875,156.1959991455078)">
					<path stroke-linecap="round" stroke-linejoin="round" fill-opacity="0" stroke="rgb(18,19,49)"
						stroke-opacity="1" stroke-width="7"
						d=" M13.66100025177002,0 C13.66100025177002,0 -13.66100025177002,0 -13.66100025177002,0"></path>
				</g>
			</g>
			<g opacity="1" transform="matrix(1,0,0,1,0,0)">
				<g opacity="1" transform="matrix(1,0,0,1,265.04400634765625,251.6179962158203)">
					<path stroke-linecap="round" stroke-linejoin="round" fill-opacity="0" stroke="rgb(18,19,49)"
						stroke-opacity="1" stroke-width="7"
						d=" M0,-13.66100025177002 C0,-13.66100025177002 0,13.66100025177002 0,13.66100025177002"></path>
				</g>
				<g opacity="1" transform="matrix(1,0,0,1,251.38299560546875,237.95700073242188)">
					<path stroke-linecap="round" stroke-linejoin="round" fill-opacity="0" stroke="rgb(18,19,49)"
						stroke-opacity="1" stroke-width="7"
						d=" M13.66100025177002,0 C13.66100025177002,0 -13.66100025177002,0 -13.66100025177002,0"></path>
				</g>
			</g>
			<g opacity="1" transform="matrix(1,0,0,1,0,0)">
				<g opacity="1" transform="matrix(1,0,0,1,346.8030090332031,251.6179962158203)">
					<path stroke-linecap="round" stroke-linejoin="round" fill-opacity="0" stroke="rgb(18,19,49)"
						stroke-opacity="1" stroke-width="7"
						d=" M0,-13.66100025177002 C0,-13.66100025177002 0,13.66100025177002 0,13.66100025177002"></path>
				</g>
				<g opacity="1" transform="matrix(1,0,0,1,360.4639892578125,237.95700073242188)">
					<path stroke-linecap="round" stroke-linejoin="round" fill-opacity="0" stroke="rgb(18,19,49)"
						stroke-opacity="1" stroke-width="7"
						d=" M-13.66100025177002,0 C-13.66100025177002,0 13.66100025177002,0 13.66100025177002,0"></path>
				</g>
			</g>
			<g opacity="1" transform="matrix(1,0,0,1,0,0)">
				<g opacity="1" transform="matrix(1,0,0,1,315.5830078125,264.6940002441406)">
					<path stroke-linecap="round" stroke-linejoin="round" fill-opacity="0" stroke="rgb(18,19,49)"
						stroke-opacity="1" stroke-width="7"
						d=" M-9.65999984741211,-9.65999984741211 C-9.65999984741211,-9.65999984741211 9.65999984741211,9.65999984741211 9.65999984741211,9.65999984741211">
					</path>
				</g>
				<g opacity="1" transform="matrix(1,0,0,1,296.2640075683594,264.6940002441406)">
					<path stroke-linecap="round" stroke-linejoin="round" fill-opacity="0" stroke="rgb(18,19,49)"
						stroke-opacity="1" stroke-width="7"
						d=" M9.65999984741211,-9.65999984741211 C9.65999984741211,-9.65999984741211 -9.65999984741211,9.65999984741211 -9.65999984741211,9.65999984741211">
					</path>
				</g>
			</g>
			<g opacity="1" transform="matrix(1,0,0,1,0,0)">
				<g opacity="1" transform="matrix(1,0,0,1,238.30499267578125,206.73599243164062)">
					<path stroke-linecap="round" stroke-linejoin="round" fill-opacity="0" stroke="rgb(18,19,49)"
						stroke-opacity="1" stroke-width="7"
						d=" M9.65999984741211,-9.65999984741211 C9.65999984741211,-9.65999984741211 -9.65999984741211,9.65999984741211 -9.65999984741211,9.65999984741211">
					</path>
				</g>
				<g opacity="1" transform="matrix(1,0,0,1,238.30499267578125,187.41600036621094)">
					<path stroke-linecap="round" stroke-linejoin="round" fill-opacity="0" stroke="rgb(18,19,49)"
						stroke-opacity="1" stroke-width="7"
						d=" M9.65999984741211,9.65999984741211 C9.65999984741211,9.65999984741211 -9.65999984741211,-9.65999984741211 -9.65999984741211,-9.65999984741211">
					</path>
				</g>
			</g>
			<g opacity="1" transform="matrix(1,0,0,1,0,0)">
				<g opacity="1" transform="matrix(1,0,0,1,373.6520080566406,187.41600036621094)">
					<path stroke-linecap="round" stroke-linejoin="round" fill-opacity="0" stroke="rgb(18,19,49)"
						stroke-opacity="1" stroke-width="7"
						d=" M-9.65999984741211,9.65999984741211 C-9.65999984741211,9.65999984741211 9.65999984741211,-9.65999984741211 9.65999984741211,-9.65999984741211">
					</path>
				</g>
				<g opacity="1" transform="matrix(1,0,0,1,373.6520080566406,206.73599243164062)">
					<path stroke-linecap="round" stroke-linejoin="round" fill-opacity="0" stroke="rgb(18,19,49)"
						stroke-opacity="1" stroke-width="7"
						d=" M-9.65999984741211,-9.65999984741211 C-9.65999984741211,-9.65999984741211 9.65999984741211,9.65999984741211 9.65999984741211,9.65999984741211">
					</path>
				</g>
			</g>
		</g>
		<g transform="matrix(1,0,0,1,35.125,-7.667999267578125)" opacity="1" style="display: block;">
			<g opacity="1" transform="matrix(1,0,0,1,214.96099853515625,250)">
				<path fill="rgb(235,230,239)" fill-opacity="1"
					d=" M34.33000183105469,50.244998931884766 C34.33000183105469,50.244998931884766 34.33000183105469,-24.885000228881836 34.33000183105469,-24.885000228881836 C34.33000183105469,-24.885000228881836 34.33000183105469,-46.46500015258789 34.33000183105469,-46.46500015258789 C34.33000183105469,-46.46500015258789 34.33000183105469,-68.04499816894531 34.33000183105469,-68.04499816894531 C34.33000183105469,-68.04499816894531 34.33000183105469,-132.2449951171875 34.33000183105469,-132.2449951171875 C34.33000183105469,-151.125 18.8799991607666,-166.5749969482422 0,-166.5749969482422 C-18.8799991607666,-166.5749969482422 -34.33000183105469,-151.125 -34.33000183105469,-132.2449951171875 C-34.33000183105469,-132.2449951171875 -34.33000183105469,50.244998931884766 -34.33000183105469,50.244998931884766 C-51.720001220703125,61.505001068115234 -63.22999954223633,81.08499908447266 -63.22999954223633,103.34500122070312 C-63.22999954223633,138.26499938964844 -34.91999816894531,166.5749969482422 0,166.5749969482422 C34.91999816894531,166.5749969482422 63.22999954223633,138.26499938964844 63.22999954223633,103.34500122070312 C63.22999954223633,81.08499908447266 51.720001220703125,61.505001068115234 34.33000183105469,50.244998931884766z">
				</path>
			</g>
			<g opacity="0.5" transform="matrix(1,0,0,1,193.09800720214844,248.89199829101562)"
				style="mix-blend-mode: multiply;">
				<path fill="rgb(235,230,239)" fill-opacity="1"
					d=" M-27.365999221801758,110.13200378417969 C-27.365999221801758,87.87200164794922 -15.855999946594238,68.29199981689453 1.534000039100647,57.03200149536133 C1.534000039100647,57.03200149536133 1.534000039100647,-125.45800018310547 1.534000039100647,-125.45800018310547 C1.534000039100647,-144.33799743652344 16.983999252319336,-159.78799438476562 35.86399841308594,-159.78799438476562 C37.736000061035156,-159.78799438476562 39.573001861572266,-159.6300048828125 41.36600112915039,-159.33799743652344 C35.81700134277344,-163.19500732421875 29.0939998626709,-165.4669952392578 21.86400032043457,-165.4669952392578 C2.9839999675750732,-165.4669952392578 -12.465999603271484,-150.01699829101562 -12.465999603271484,-131.13699340820312 C-12.465999603271484,-131.13699340820312 -12.465999603271484,51.35300064086914 -12.465999603271484,51.35300064086914 C-29.856000900268555,62.612998962402344 -41.36600112915039,82.19300079345703 -41.36600112915039,104.4530029296875 C-41.36600112915039,133.6280059814453 -21.600000381469727,158.1750030517578 5.267000198364258,165.4669952392578 C-14.189000129699707,154.68499755859375 -27.365999221801758,133.9510040283203 -27.365999221801758,110.13200378417969z">
				</path>
			</g>
		</g>
		<g transform="matrix(1,0,0,1,250,243.5449981689453)" opacity="1" style="display: block;">
			<g opacity="1" transform="matrix(1,0,0,1,0,0)">
				<path stroke-linecap="round" stroke-linejoin="round" fill-opacity="0" stroke="rgb(18,19,49)"
					stroke-opacity="1" stroke-width="7"
					d=" M34.33000183105469,50.244998931884766 C34.33000183105469,50.244998931884766 34.33000183105469,-132.2449951171875 34.33000183105469,-132.2449951171875 C34.33000183105469,-151.125 18.8799991607666,-166.5749969482422 0,-166.5749969482422 C-18.8799991607666,-166.5749969482422 -34.33000183105469,-151.125 -34.33000183105469,-132.2449951171875 C-34.33000183105469,-132.2449951171875 -34.33000183105469,50.244998931884766 -34.33000183105469,50.244998931884766 C-51.720001220703125,61.505001068115234 -63.22999954223633,81.08499908447266 -63.22999954223633,103.34500122070312 C-63.22999954223633,138.26499938964844 -34.91999816894531,166.5749969482422 0,166.5749969482422 C34.91999816894531,166.5749969482422 63.22999954223633,138.26499938964844 63.22999954223633,103.34500122070312 C63.22999954223633,81.08499908447266 51.720001220703125,61.505001068115234 34.33000183105469,50.244998931884766z">
				</path>
			</g>
		</g>
		<g transform="matrix(1,0,0,1,250,297.6929931640625)" opacity="1" style="display: block;">
			<g opacity="1" transform="matrix(1,0,0,1,0,0)">
				<path stroke-linecap="round" stroke-linejoin="round" fill-opacity="0" stroke="rgb(75,179,253)"
					stroke-opacity="1" stroke-width="10.010000000000002"
					d=" M0,-47.69300079345703 C0,-47.69300079345703 0,47.69300079345703 0,47.69300079345703"></path>
			</g>
		</g>
		<g transform="matrix(1,0,0,1,250,345.3690185546875)" opacity="1" style="display: block;">
			<g opacity="1" transform="matrix(1,0,0,1,0,0)">
				<path stroke-linecap="round" stroke-linejoin="round" fill-opacity="0" stroke="rgb(75,179,253)"
					stroke-opacity="1" stroke-width="29.96"
					d=" M0.0729999989271164,0 C0.0729999989271164,0 -0.0729999989271164,0 -0.0729999989271164,0"></path>
			</g>
		</g>
	</g>
</svg>