<?xml version="1.0" encoding="utf-8"?>
<!-- Generator: Adobe Illustrator 24.1.2, SVG Export Plug-In . SVG Version: 6.00 Build 0)  -->
<svg version="1.1" id="Warstwa_3" xmlns="http://www.w3.org/2000/svg" xmlns:xlink="http://www.w3.org/1999/xlink" x="0px" y="0px"
	 viewBox="0 0 430 430" style="enable-background:new 0 0 430 430;" xml:space="preserve">
<style type="text/css">
	.st0{fill:#e4e4e4;}
	.st1{fill:#ffffff;}
	.st2{fill:#e4e4e4;}
	.st3{fill:none;}
</style>
<g>
	<path class="st0" d="M324.19,315.16c-19.16,0-28.88-3.2-38.27-6.3c-8.89-2.93-17.28-5.7-34.52-5.7c-17.24,0-25.63,2.77-34.52,5.7
		c-9.4,3.1-19.11,6.3-38.28,6.3s-28.88-3.2-38.28-6.3c-8.89-2.93-17.28-5.7-34.52-5.7c-3.31,0-6-2.69-6-6s2.69-6,6-6
		c19.16,0,28.88,3.2,38.28,6.3c8.89,2.93,17.28,5.7,34.52,5.7s25.63-2.77,34.52-5.7c9.4-3.1,19.11-6.3,38.28-6.3
		c19.16,0,28.88,3.2,38.27,6.3c8.89,2.93,17.28,5.7,34.52,5.7c3.31,0,6,2.69,6,6S327.5,315.16,324.19,315.16z"/>
	<path class="st0" d="M324.19,384.53c-19.16,0-28.88-3.2-38.27-6.3c-8.89-2.93-17.28-5.7-34.52-5.7c-17.24,0-25.63,2.77-34.52,5.7
		c-9.4,3.1-19.11,6.3-38.28,6.3s-28.88-3.2-38.28-6.3c-8.89-2.93-17.28-5.7-34.52-5.7c-3.31,0-6-2.69-6-6s2.69-6,6-6
		c19.16,0,28.88,3.2,38.28,6.3c8.89,2.93,17.28,5.7,34.52,5.7s25.63-2.77,34.52-5.7c9.4-3.1,19.11-6.3,38.28-6.3
		c19.16,0,28.88,3.2,38.27,6.3c8.89,2.93,17.28,5.7,34.52,5.7c3.31,0,6,2.69,6,6S327.5,384.53,324.19,384.53z"/>
	<path class="st0" d="M324.19,349.84c-19.16,0-28.88-3.2-38.27-6.3c-8.89-2.93-17.28-5.7-34.52-5.7c-17.24,0-25.63,2.77-34.52,5.7
		c-9.4,3.1-19.11,6.3-38.28,6.3s-28.88-3.2-38.28-6.3c-8.89-2.93-17.28-5.7-34.52-5.7c-3.31,0-6-2.69-6-6s2.69-6,6-6
		c19.16,0,28.88,3.2,38.28,6.3c8.89,2.93,17.28,5.7,34.52,5.7s25.63-2.77,34.52-5.7c9.4-3.1,19.11-6.3,38.28-6.3
		c19.16,0,28.88,3.2,38.27,6.3c8.89,2.93,17.28,5.7,34.52,5.7c3.31,0,6,2.69,6,6S327.5,349.84,324.19,349.84z"/>
	<path class="st1" d="M330.41,111.89c-19.49-40.42-60.7-66.42-105.69-66.42c-40.58,0-78.6,21.38-100.23,56.07
		c-11-1.27-22.19,2.35-30.64,10.08c-8.85,8.1-13.59,19.54-13.1,31.23C61,155.47,48.88,177.4,48.88,201
		c0,38.01,30.92,68.93,68.93,68.93h181.17c45.29,0,82.14-36.85,82.14-82.14C381.12,154.68,360.84,124.5,330.41,111.89z
		 M298.98,257.92H117.81c-31.39,0-56.93-25.54-56.93-56.93c0-20.58,11.16-39.62,29.13-49.69c2.17-1.22,3.36-3.64,3-6.11
		c-1.34-9.12,2-18.36,8.95-24.72c6.75-6.18,15.56-8.54,24.17-6.49c8.11,1.93,15.2,7.11,19.46,14.2c3.76,6.25,4.86,13.42,3.1,20.18
		c-0.83,3.21,1.09,6.48,4.3,7.32c3.21,0.83,6.48-1.09,7.32-4.3c2.58-9.91,1.01-20.35-4.42-29.38c-4.52-7.52-11.33-13.47-19.3-17.06
		c19.72-29.45,52.86-47.47,88.14-47.47c41.12,0,78.73,24.18,95.83,61.61c8.8,19.26,11.57,41.43,7.8,62.42
		c-0.59,3.26,1.58,6.38,4.84,6.97c0.36,0.06,0.72,0.1,1.07,0.1c2.85,0,5.38-2.04,5.9-4.94c3.26-18.17,2.1-37.14-3.18-54.77
		c19.66,12.75,32.13,34.94,32.13,58.93C369.12,226.46,337.65,257.92,298.98,257.92z"/>
</g>
</svg>
