<svg xmlns="http://www.w3.org/2000/svg" viewBox="0 0 500 500" width="500" height="500"
	preserveAspectRatio="xMidYMid meet"
	style="width: 100%; height: 100%; transform: translate3d(0px, 0px, 0px); content-visibility: visible;">
	<defs>
		<clipPath id="__lottie_element_7574">
			<rect width="500" height="500" x="0" y="0"></rect>
		</clipPath>
	</defs>
	<g clip-path="url(#__lottie_element_7574)">
		<g transform="matrix(1,0,0,1,45,-5.5)" opacity="1" style="display: block;">
			<g opacity="1" transform="matrix(1,0,0,1,274.0299987792969,207.6649932861328)">
				<path fill="rgb(255,199,56)" fill-opacity="1"
					d=" M-33.915000915527344,-35.279998779296875 C-26.915000915527344,-40.20000076293945 -18.385000228881836,-43.09000015258789 -9.175000190734863,-43.09000015258789 C14.625,-43.09000015258789 33.915000915527344,-23.799999237060547 33.915000915527344,0 C33.915000915527344,23.799999237060547 14.625,43.09000015258789 -9.175000190734863,43.09000015258789 C-18.385000228881836,43.09000015258789 -26.915000915527344,40.20000076293945 -33.915000915527344,35.279998779296875">
				</path>
			</g>
			<g opacity="0.5" transform="matrix(1,0,0,1,251.35699462890625,207.6649932861328)"
				style="mix-blend-mode: multiply;">
				<path fill="rgb(255,199,56)" fill-opacity="1"
					d=" M25.360000610351562,40.08300018310547 C1.5770000219345093,40.08300018310547 -17.70400047302246,20.802000045776367 -17.70400047302246,-2.9809999465942383 C-17.70400047302246,-21.13800048828125 -6.460999965667725,-36.659000396728516 9.437999725341797,-42.992000579833984 C-12.454999923706055,-40.94499969482422 -29.591999053955078,-22.525999069213867 -29.591999053955078,-0.09799999743700027 C-29.591999053955078,23.700000762939453 -10.300000190734863,42.992000579833984 13.498000144958496,42.992000579833984 C19.190000534057617,42.992000579833984 24.618000030517578,41.87799835205078 29.591999053955078,39.87300109863281 C28.198999404907227,40.00899887084961 26.788999557495117,40.08300018310547 25.360000610351562,40.08300018310547z">
				</path>
			</g>
		</g>
		<g transform="matrix(1,0,0,1,0,0)" opacity="1" style="display: block;">
			<g opacity="1" transform="matrix(1,0,0,1,366.6780090332031,143.60299682617188)">
				<path stroke-linecap="round" stroke-linejoin="round" fill-opacity="0" stroke="rgb(18,19,49)"
					stroke-opacity="1" stroke-width="7"
					d=" M-100.69100189208984,57.60100173950195 C-100.69100189208984,81.39900207519531 -81.39900207519531,100.69100189208984 -57.60100173950195,100.69100189208984 C-33.803001403808594,100.69100189208984 -14.510000228881836,81.39900207519531 -14.510000228881836,57.60100173950195 C-14.510000228881836,33.803001403808594 -33.803001403808594,14.510000228881836 -57.60100173950195,14.510000228881836 C-81.39900207519531,14.510000228881836 -100.69100189208984,33.803001403808594 -100.69100189208984,57.60100173950195z M-57.60100173950195,-12.732000350952148 C-57.60100173950195,-12.732000350952148 -57.60100173950195,-34.986000061035156 -57.60100173950195,-34.986000061035156 M-107.33300018310547,7.868000030517578 C-107.33300018310547,7.868000030517578 -123.06900024414062,-7.868000030517578 -123.06900024414062,-7.868000030517578 M-127.93299865722656,57.60100173950195 C-127.93299865722656,57.60100173950195 -150.18699645996094,57.60100173950195 -150.18699645996094,57.60100173950195 M-107.33300018310547,107.33300018310547 C-107.33300018310547,107.33300018310547 -123.06900024414062,123.06900024414062 -123.06900024414062,123.06900024414062 M-57.60100173950195,127.93299865722656 C-57.60100173950195,127.93299865722656 -57.60100173950195,150.18699645996094 -57.60100173950195,150.18699645996094 M-7.868000030517578,107.33300018310547 C-7.868000030517578,107.33300018310547 7.868000030517578,123.06900024414062 7.868000030517578,123.06900024414062 M12.732000350952148,57.60100173950195 C12.732000350952148,57.60100173950195 34.986000061035156,57.60100173950195 34.986000061035156,57.60100173950195 M-7.868000030517578,7.868000030517578 C-7.868000030517578,7.868000030517578 7.868000030517578,-7.868000030517578 7.868000030517578,-7.868000030517578">
				</path>
			</g>
		</g>
		<g transform="matrix(1,0,0,1,45,-6)" opacity="1" style="display: block;">
			<g opacity="1" transform="matrix(1,0,0,1,205.78500366210938,250)">
				<path fill="rgb(235,230,239)" fill-opacity="1"
					d=" M34.33000183105469,50.244998931884766 C34.33000183105469,50.244998931884766 34.33000183105469,-7.056000232696533 34.33000183105469,-7.056000232696533 C34.33000183105469,-7.056000232696533 34.33000183105469,-77.61499786376953 34.33000183105469,-77.61499786376953 C34.33000183105469,-77.61499786376953 34.33000183105469,-132.2449951171875 34.33000183105469,-132.2449951171875 C34.33000183105469,-151.125 18.8799991607666,-166.5749969482422 0,-166.5749969482422 C-18.8799991607666,-166.5749969482422 -34.33000183105469,-151.125 -34.33000183105469,-132.2449951171875 C-34.33000183105469,-132.2449951171875 -34.33000183105469,50.244998931884766 -34.33000183105469,50.244998931884766 C-51.720001220703125,61.505001068115234 -63.22999954223633,81.08499908447266 -63.22999954223633,103.34500122070312 C-63.22999954223633,138.26499938964844 -34.91999816894531,166.5749969482422 0,166.5749969482422 C34.91999816894531,166.5749969482422 63.22999954223633,138.26499938964844 63.22999954223633,103.34500122070312 C63.22999954223633,81.08499908447266 51.720001220703125,61.505001068115234 34.33000183105469,50.244998931884766z">
				</path>
			</g>
			<g opacity="0.5" transform="matrix(1,0,0,1,183.92100524902344,249.05499267578125)"
				style="mix-blend-mode: multiply;">
				<path fill="rgb(235,230,239)" fill-opacity="1"
					d=" M-27.365999221801758,110.13200378417969 C-27.365999221801758,87.87200164794922 -15.855999946594238,68.29199981689453 1.534000039100647,57.03200149536133 C1.534000039100647,57.03200149536133 1.534000039100647,-125.45800018310547 1.534000039100647,-125.45800018310547 C1.534000039100647,-144.33799743652344 16.983999252319336,-159.78799438476562 35.86399841308594,-159.78799438476562 C37.736000061035156,-159.78799438476562 39.573001861572266,-159.6300048828125 41.36600112915039,-159.33799743652344 C35.81700134277344,-163.19500732421875 29.0939998626709,-165.4669952392578 21.86400032043457,-165.4669952392578 C2.9839999675750732,-165.4669952392578 -12.465999603271484,-150.01699829101562 -12.465999603271484,-131.13699340820312 C-12.465999603271484,-131.13699340820312 -12.465999603271484,51.35300064086914 -12.465999603271484,51.35300064086914 C-29.856000900268555,62.612998962402344 -41.36600112915039,82.19300079345703 -41.36600112915039,104.4530029296875 C-41.36600112915039,133.6280059814453 -21.600000381469727,158.1750030517578 5.267000198364258,165.4669952392578 C-14.189000129699707,154.68499755859375 -27.365999221801758,133.9510040283203 -27.365999221801758,110.13200378417969z">
				</path>
			</g>
		</g>
		<g transform="matrix(1,0,0,1,250,257.6629943847656)" opacity="1" style="display: block;">
			<g opacity="1" transform="matrix(1,0,0,1,0,0)">
				<path stroke-linecap="round" stroke-linejoin="round" fill-opacity="0" stroke="rgb(242,76,0)"
					stroke-opacity="1" stroke-width="10.010000000000002"
					d=" M0,-87.72200012207031 C0,-87.72200012207031 0,87.72200012207031 0,87.72200012207031"></path>
			</g>
		</g>
		<g transform="matrix(1,0,0,1,250,243.5449981689453)" opacity="1" style="display: block;">
			<g opacity="1" transform="matrix(1,0,0,1,0,0)">
				<path stroke-linecap="round" stroke-linejoin="round" fill-opacity="0" stroke="rgb(18,19,49)"
					stroke-opacity="1" stroke-width="7"
					d=" M34.33000183105469,50.244998931884766 C34.33000183105469,50.244998931884766 34.33000183105469,-132.2449951171875 34.33000183105469,-132.2449951171875 C34.33000183105469,-151.125 18.8799991607666,-166.5749969482422 0,-166.5749969482422 C-18.8799991607666,-166.5749969482422 -34.33000183105469,-151.125 -34.33000183105469,-132.2449951171875 C-34.33000183105469,-132.2449951171875 -34.33000183105469,50.244998931884766 -34.33000183105469,50.244998931884766 C-51.720001220703125,61.505001068115234 -63.22999954223633,81.08499908447266 -63.22999954223633,103.34500122070312 C-63.22999954223633,138.26499938964844 -34.91999816894531,166.5749969482422 0,166.5749969482422 C34.91999816894531,166.5749969482422 63.22999954223633,138.26499938964844 63.22999954223633,103.34500122070312 C63.22999954223633,81.08499908447266 51.720001220703125,61.505001068115234 34.33000183105469,50.244998931884766z">
				</path>
			</g>
		</g>
		<g transform="matrix(1,0,0,1,250,345.3690185546875)" opacity="1" style="display: block;">
			<g opacity="1" transform="matrix(1,0,0,1,0,0)">
				<path stroke-linecap="round" stroke-linejoin="round" fill-opacity="0" stroke="rgb(242,76,0)"
					stroke-opacity="1" stroke-width="29.96"
					d=" M0.0729999989271164,0 C0.0729999989271164,0 -0.0729999989271164,0 -0.0729999989271164,0"></path>
			</g>
		</g>
	</g>
</svg>