<svg xmlns="http://www.w3.org/2000/svg" viewBox="0 0 500 500" width="500" height="500"
	preserveAspectRatio="xMidYMid meet"
	style="width: 100%; height: 100%; transform: translate3d(0px, 0px, 0px) scale(1.3); content-visibility: visible;">
	<defs>
		<clipPath id="__lottie_element_9740">
			<rect width="500" height="500" x="0" y="0"></rect>
		</clipPath>
		<clipPath id="__lottie_element_9767">
			<path d="M0,0 L500,0 L500,500 L0,500z"></path>
		</clipPath>
	</defs>
	<g clip-path="url(#__lottie_element_9740)">
		<g clip-path="url(#__lottie_element_9767)" transform="matrix(1,0,0,1,9.5,-38.5)" opacity="1"
			style="display: block;">
			<g transform="matrix(1,0,0,1,300.8349914550781,231.0659942626953)" opacity="1" style="display: block;">
				<g opacity="1" transform="matrix(1,0,0,1,0,0)">
					<path fill="rgb(255,199,56)" fill-opacity="1"
						d=" M-75.93399810791016,0 C-75.93399810791016,41.9370002746582 -41.9370002746582,75.93399810791016 0,75.93399810791016 C41.9370002746582,75.93399810791016 75.93399810791016,41.9370002746582 75.93399810791016,0 C75.93399810791016,-41.9370002746582 41.9370002746582,-75.93399810791016 0,-75.93399810791016 C-41.9370002746582,-75.93399810791016 -75.93399810791016,-41.9370002746582 -75.93399810791016,0z">
					</path>
					<path stroke-linecap="round" stroke-linejoin="round" fill-opacity="0" stroke="rgb(18,19,49)"
						stroke-opacity="1" stroke-width="7"
						d=" M-75.93399810791016,0 C-75.93399810791016,41.9370002746582 -41.9370002746582,75.93399810791016 0,75.93399810791016 C41.9370002746582,75.93399810791016 75.93399810791016,41.9370002746582 75.93399810791016,0 C75.93399810791016,-41.9370002746582 41.9370002746582,-75.93399810791016 0,-75.93399810791016 C-41.9370002746582,-75.93399810791016 -75.93399810791016,-41.9370002746582 -75.93399810791016,0z">
					</path>
				</g>
			</g>
			<g transform="matrix(0,1,-1,0,300.8349914550781,355.28399658203125)" opacity="1" style="display: block;">
				<g opacity="1" transform="matrix(1,0,0,1,0,0)">
					<path stroke-linecap="round" stroke-linejoin="round" fill-opacity="0" stroke="rgb(18,19,49)"
						stroke-opacity="1" stroke-width="7" d="M0 0"></path>
				</g>
			</g>
			<g transform="matrix(0.7071067690849304,0.7071067690849304,-0.7071067690849304,0.7071067690849304,388.6703796386719,318.9013671875)"
				opacity="1" style="display: block;">
				<g opacity="1" transform="matrix(1,0,0,1,0,0)">
					<path stroke-linecap="round" stroke-linejoin="round" fill-opacity="0" stroke="rgb(18,19,49)"
						stroke-opacity="1" stroke-width="7"
						d=" M-16.93899917602539,0 C-6.10699987411499,0 6.10699987411499,0 16.93899917602539,0"></path>
				</g>
			</g>
			<g transform="matrix(1,0,0,1,425.052978515625,231.0659942626953)" opacity="1" style="display: block;">
				<g opacity="1" transform="matrix(1,0,0,1,0,0)">
					<path stroke-linecap="round" stroke-linejoin="round" fill-opacity="0" stroke="rgb(18,19,49)"
						stroke-opacity="1" stroke-width="7"
						d=" M-16.93899917602539,0 C-6.10699987411499,0 6.10699987411499,0 16.93899917602539,0"></path>
				</g>
			</g>
			<g transform="matrix(0.7071067690849304,-0.7071067690849304,0.7071067690849304,0.7071067690849304,388.6703796386719,143.23060607910156)"
				opacity="1" style="display: block;">
				<g opacity="1" transform="matrix(1,0,0,1,0,0)">
					<path stroke-linecap="round" stroke-linejoin="round" fill-opacity="0" stroke="rgb(18,19,49)"
						stroke-opacity="1" stroke-width="7"
						d=" M-16.93899917602539,0 C-6.10699987411499,0 6.10699987411499,0 16.93899917602539,0"></path>
				</g>
			</g>
			<g transform="matrix(0,-1,1,0,300.8349914550781,106.84799194335938)" opacity="1" style="display: block;">
				<g opacity="1" transform="matrix(1,0,0,1,0,0)">
					<path stroke-linecap="round" stroke-linejoin="round" fill-opacity="0" stroke="rgb(18,19,49)"
						stroke-opacity="1" stroke-width="7"
						d=" M-16.93899917602539,0 C-6.10699987411499,0 6.10699987411499,0 16.93899917602539,0"></path>
				</g>
			</g>
			<g transform="matrix(-0.7071067690849304,-0.7071067690849304,0.7071067690849304,-0.7071067690849304,212.99960327148438,143.23060607910156)"
				opacity="1" style="display: block;">
				<g opacity="1" transform="matrix(1,0,0,1,0,0)">
					<path stroke-linecap="round" stroke-linejoin="round" fill-opacity="0" stroke="rgb(18,19,49)"
						stroke-opacity="1" stroke-width="7"
						d=" M-16.93899917602539,0 C-6.10699987411499,0 6.10699987411499,0 16.93899917602539,0"></path>
				</g>
			</g>
		</g>
		<g transform="matrix(0.949999988079071,0,0,0.949999988079071,-17.5,17.81549072265625)" opacity="1"
			style="display: block;">
			<g opacity="1" transform="matrix(1,0,0,1,159.00399780273438,356.30999755859375)">
				<path fill="#9ce5f4" fill-opacity="1"
					d=" M69.03900146484375,44.35499954223633 C69.03900146484375,56.481998443603516 78.86900329589844,66.31199645996094 90.99600219726562,66.31199645996094 C103.12300109863281,66.31199645996094 112.9530029296875,56.481998443603516 112.9530029296875,44.35499954223633 C112.9530029296875,32.22800064086914 90.99600219726562,-3.933000087738037 90.99600219726562,-3.933000087738037 C90.99600219726562,-3.933000087738037 69.03900146484375,32.22800064086914 69.03900146484375,44.35499954223633z M165.65699768066406,9.793999671936035 C165.65699768066406,18.81599998474121 172.97000122070312,26.128999710083008 181.99200439453125,26.128999710083008 C191.01400756835938,26.128999710083008 198.32699584960938,18.81599998474121 198.32699584960938,9.793999671936035 C198.32699584960938,0.7720000147819519 181.99200439453125,-26.128999710083008 181.99200439453125,-26.128999710083008 C181.99200439453125,-26.128999710083008 165.65699768066406,0.7720000147819519 165.65699768066406,9.793999671936035z M-16.334999084472656,9.793999671936035 C-16.334999084472656,18.81599998474121 -9.022000312805176,26.128999710083008 0,26.128999710083008 C9.022000312805176,26.128999710083008 16.334999084472656,18.81599998474121 16.334999084472656,9.793999671936035 C16.334999084472656,0.7720000147819519 0,-26.128999710083008 0,-26.128999710083008 C0,-26.128999710083008 -16.334999084472656,0.7720000147819519 -16.334999084472656,9.793999671936035z">
				</path>
			</g>
		</g>
		<g transform="matrix(0.949999988079071,0,0,0.949999988079071,-17.5,17.81549072265625)" opacity="1"
			style="mix-blend-mode: multiply; display: block;">
			<g opacity="1" transform="matrix(1,0,0,1,159.00399780273438,356.30999755859375)">
				<path fill="rgb(235,230,239)" fill-opacity="1"
					d=" M69.03900146484375,44.35499954223633 C69.03900146484375,56.481998443603516 78.86900329589844,66.31199645996094 90.99600219726562,66.31199645996094 C93.10900115966797,66.31199645996094 95.48500061035156,65.96700286865234 97.48200225830078,65.72000122070312 C96.19400024414062,65.23300170898438 77.83799743652344,57.83100128173828 79.26899719238281,44.09199905395508 C80.14099884033203,35.720001220703125 89.68000030517578,20.200000762939453 96.10099792480469,4.693999767303467 C96.25900268554688,4.343999862670898 90.99600219726562,-3.933000087738037 90.99600219726562,-3.933000087738037 C90.99600219726562,-3.933000087738037 69.03900146484375,32.22800064086914 69.03900146484375,44.35499954223633z M166.23300170898438,9.333999633789062 C166.23300170898438,18.356000900268555 174.13800048828125,25.99799919128418 183.16000366210938,25.99799919128418 C184.3070068359375,25.99799919128418 185.43800354003906,25.929000854492188 186.5070037841797,25.65399932861328 C187.04800415039062,25.461999893188477 173.37600708007812,17.142000198364258 173.37600708007812,9.267999649047852 C173.37600708007812,2.872999906539917 181.98300170898438,-14.602999687194824 185.78399658203125,-20.195999145507812 C186.19400024414062,-20.19499969482422 182.43600463867188,-25.93199920654297 182.43600463867188,-25.93199920654297 C182.43600463867188,-25.93199920654297 166.23300170898438,0.31200000643730164 166.23300170898438,9.333999633789062z M-16.334999084472656,9.793999671936035 C-16.334999084472656,18.81599998474121 -9.022000312805176,26.128999710083008 0,26.128999710083008 C1.0700000524520874,26.128999710083008 4.160999774932861,25.812000274658203 3.128999948501587,25.829999923706055 C1.5219999551773071,25.857999801635742 -9.784000396728516,18.402999877929688 -9.784000396728516,10.45199966430664 C-9.784000396728516,4.198999881744385 -0.7149999737739563,-13.02400016784668 3.6700000762939453,-19.823999404907227 C3.2990000247955322,-20.19499969482422 0,-26.128999710083008 0,-26.128999710083008 C0,-26.128999710083008 -16.334999084472656,0.7720000147819519 -16.334999084472656,9.793999671936035z"
					style="mix-blend-mode: multiply;"></path>
			</g>
		</g>
		<g transform="matrix(0.949999988079071,0,0,0.949999988079071,-17.5,17.81549072265625)" opacity="1"
			style="display: block;">
			<g opacity="1" transform="matrix(1,0,0,1,159.00399780273438,356.30999755859375)">
				<path stroke-linecap="round" stroke-linejoin="round" fill-opacity="0" stroke="rgb(18,19,49)"
					stroke-opacity="1" stroke-width="7"
					d=" M69.03900146484375,44.35499954223633 C69.03900146484375,56.481998443603516 78.86900329589844,66.31199645996094 90.99600219726562,66.31199645996094 C103.12300109863281,66.31199645996094 112.9530029296875,56.481998443603516 112.9530029296875,44.35499954223633 C112.9530029296875,32.22800064086914 90.99600219726562,-3.933000087738037 90.99600219726562,-3.933000087738037 C90.99600219726562,-3.933000087738037 69.03900146484375,32.22800064086914 69.03900146484375,44.35499954223633z M165.65699768066406,9.793999671936035 C165.65699768066406,18.81599998474121 172.97000122070312,26.128999710083008 181.99200439453125,26.128999710083008 C191.01400756835938,26.128999710083008 198.32699584960938,18.81599998474121 198.32699584960938,9.793999671936035 C198.32699584960938,0.7720000147819519 181.99200439453125,-26.128999710083008 181.99200439453125,-26.128999710083008 C181.99200439453125,-26.128999710083008 165.65699768066406,0.7720000147819519 165.65699768066406,9.793999671936035z M-16.334999084472656,9.793999671936035 C-16.334999084472656,18.81599998474121 -9.022000312805176,26.128999710083008 0,26.128999710083008 C9.022000312805176,26.128999710083008 16.334999084472656,18.81599998474121 16.334999084472656,9.793999671936035 C16.334999084472656,0.7720000147819519 0,-26.128999710083008 0,-26.128999710083008 C0,-26.128999710083008 -16.334999084472656,0.7720000147819519 -16.334999084472656,9.793999671936035z">
				</path>
			</g>
		</g>
		<g transform="matrix(0.9999861121177673,0,0,0.9999861121177673,249.99945068359375,249.99966430664062)"
			opacity="1" style="display: block;">
			<g opacity="1" transform="matrix(1,0,0,1,16.5,-14.5)">
				<g opacity="1" transform="matrix(1,0,0,1,0,0)">
					<path fill="rgb(255,255,255)" fill-opacity="1"
						d=" M53.94599914550781,-66.31300354003906 C38.334999084472656,-100.49500274658203 3.859999895095825,-124.2509994506836 -36.17399978637695,-124.2509994506836 C-72.9020004272461,-124.2509994506836 -101.81800079345703,-104.51799774169922 -118.90899658203125,-74.81600189208984 C-139.1179962158203,-79.63200378417969 -161.6649932861328,-60.624000549316406 -158.6490020751953,-40.07699966430664 C-175.7530059814453,-30.492000579833984 -187.29800415039062,-12.187999725341797 -187.29800415039062,8.795999526977539 C-187.29800415039062,39.724998474121094 -162.23500061035156,64.78800201416016 -131.30599975585938,64.78800201416016 C-131.30599975585938,64.78800201416016 29.895999908447266,64.78800201416016 29.895999908447266,64.78800201416016 C67.31700134277344,64.78800201416016 97.64600372314453,34.45899963378906 97.64600372314453,-2.9619998931884766 C97.64600372314453,-31.917999267578125 79.48899841308594,-56.62099838256836 53.94599914550781,-66.31300354003906z">
					</path>
				</g>
				<g opacity="0.5" transform="matrix(1,0,0,1,0,0)" style="mix-blend-mode: multiply;">
					<path fill="rgb(255,255,255)" fill-opacity="1"
						d=" M-110.68499755859375,9.86299991607666 C-110.68499755859375,-11.121000289916992 -99.13999938964844,-29.424999237060547 -82.03600311279297,-39.0099983215332 C-85.052001953125,-59.55699920654297 -66.25499725341797,-77.56500244140625 -46.04600143432617,-72.7490005493164 C-34.98899841308594,-91.96399688720703 -17.40999984741211,-107.41500091552734 3.566999912261963,-115.93800354003906 C-8.597999572753906,-121.2760009765625 -22.035999298095703,-124.2509994506836 -36.17399978637695,-124.2509994506836 C-72.9020004272461,-124.2509994506836 -101.81800079345703,-104.51799774169922 -118.90899658203125,-74.81600189208984 C-139.1179962158203,-79.63200378417969 -161.6649932861328,-60.624000549316406 -158.6490020751953,-40.07699966430664 C-175.7530059814453,-30.492000579833984 -187.29800415039062,-12.187999725341797 -187.29800415039062,8.795999526977539 C-187.29800415039062,39.724998474121094 -162.23500061035156,64.78800201416016 -131.30599975585938,64.78800201416016 C-131.30599975585938,64.78800201416016 -65.58499908447266,64.78800201416016 -65.58499908447266,64.78800201416016 C-91.2969970703125,59.720001220703125 -110.68499755859375,37.06399917602539 -110.68499755859375,9.86299991607666z">
					</path>
				</g>
			</g>
		</g>
		<g transform="matrix(2.861600160598755,0,0,2.861600160598755,221,205.08399963378906)" opacity="1"
			style="display: block;">
			<g opacity="1" transform="matrix(1,0,0,1,0,0)">
				<path stroke-linecap="round" stroke-linejoin="round" fill-opacity="0" stroke="rgb(18,19,49)"
					stroke-opacity="1" stroke-width="2.8"
					d=" M34.66299819946289,-13.180000305175781 C29.535999298095703,-25.198999404907227 17.61400032043457,-33.625 3.7219998836517334,-33.625 C-9.26200008392334,-33.625 -20.518999099731445,-26.26099967956543 -26.121999740600586,-15.486000061035156 C-27.139999389648438,-15.817000389099121 -28.225000381469727,-16 -29.354000091552734,-16 C-35.132999420166016,-16 -39.81700134277344,-11.3149995803833 -39.81700134277344,-5.535999774932861 C-39.81700134277344,-4.76200008392334 -39.72700119018555,-4.010000228881836 -39.56800079345703,-3.2839999198913574 C-45.79499816894531,-0.006000000052154064 -50.047000885009766,6.51800012588501 -50.047000885009766,14.043999671936035 C-50.047000885009766,24.857999801635742 -41.279998779296875,33.625 -30.465999603271484,33.625 C-24.732999801635742,33.625 22.198999404907227,33.625 25.80500030517578,33.625 C39.19300079345703,33.625 50.047000885009766,22.77199935913086 50.047000885009766,9.383999824523926 C50.047000885009766,-0.8769999742507935 43.667999267578125,-9.642000198364258 34.66299819946289,-13.180000305175781z">
				</path>
			</g>
		</g>
		<g transform="matrix(2.861600160598755,0,0,2.861600160598755,221,205.08399963378906)" opacity="1"
			style="display: block;">
			<g opacity="1" transform="matrix(1,0,0,1,0,0)">
				<path stroke-linecap="round" stroke-linejoin="round" fill-opacity="0" stroke="rgb(18,19,49)"
					stroke-opacity="1" stroke-width="2.8"
					d=" M-19.496000289916992,-9.069999694824219 C-20.952999114990234,-13.107000350952148 -24.808000564575195,-16 -29.347000122070312,-16 M34.58599853515625,-13.411999702453613 C36.375,-9.303000450134277 37.367000579833984,-4.76800012588501 37.367000579833984,0 C37.367000579833984,0 37.37799835205078,3.5510001182556152 36.145999908447266,7.908999919891357">
				</path>
			</g>
		</g>
	</g>
</svg>