<svg xmlns="http://www.w3.org/2000/svg" viewBox="0 0 500 500" width="500" height="500"
	preserveAspectRatio="xMidYMid meet"
	style="width: 100%; height: 100%; transform: translate3d(0px, 0px, 0px); content-visibility: visible;">
	<defs>
		<clipPath id="__lottie_element_9708">
			<rect width="500" height="500" x="0" y="0"></rect>
		</clipPath>
	</defs>
	<g clip-path="url(#__lottie_element_9708)">
		<g transform="matrix(1,0,0,1,100.375,1.1259918212890625)" opacity="1" style="display: block;">
			<g opacity="0.5" transform="matrix(1,0,0,1,213.4290008544922,96.7509994506836)"
				style="mix-blend-mode: multiply;"></g>
			<g opacity="1" transform="matrix(1,0,0,1,258.1289978027344,143.33900451660156)">
				<path fill="rgb(235,230,239)" fill-opacity="1"
					d=" M-15.043999671936035,6.0980000495910645 C-34.69300079345703,-22.615999221801758 -35.17499923706055,-58.73500061035156 -19.322999954223633,-87.20700073242188 C-28.13800048828125,-84.64900207519531 -36.69499969482422,-80.68900299072266 -44.685001373291016,-75.25199890136719 C-73.85399627685547,-55.430999755859375 -87.53900146484375,-21.445999145507812 -82.77899932861328,11.15999984741211 C-71.22899627685547,18.427000045776367 -61.53300094604492,28.459999084472656 -54.70399856567383,40.422000885009766 C-44.45199966430664,43.2869987487793 -35.29100036621094,48.95800018310547 -28.18400001525879,56.61600112915039 C-27.315000534057617,57.551998138427734 -26.479999542236328,58.520999908447266 -25.673999786376953,59.51499938964844 C-24.886999130249023,60.48699951171875 -24.131000518798828,61.48400115966797 -23.408000946044922,62.507999420166016 C-18.763999938964844,69.08399963378906 -15.470000267028809,76.71600341796875 -13.96399974822998,85.04100036621094 C-13.96399974822998,85.04100036621094 -13.958000183105469,85.0479965209961 -13.958000183105469,85.0479965209961 C9.324999809265137,90.23600006103516 34.632999420166016,86.18000030517578 55.90999984741211,71.72200012207031 C67.83000183105469,63.624000549316406 77.16100311279297,53.15299987792969 83.70700073242188,41.38399887084961 C47.5890007019043,51.87300109863281 7.294000148773193,38.731998443603516 -15.043999671936035,6.0980000495910645z">
				</path>
			</g>
			<g opacity="0.5" transform="matrix(1,0,0,1,206.61399841308594,113.08699798583984)"
				style="mix-blend-mode: multiply;">
				<path fill="rgb(235,230,239)" fill-opacity="1"
					d=" M23.44300079345703,-49.33700180053711 C26.062999725341797,-51.67100143432617 28.756000518798828,-53.76499938964844 31.500999450683594,-55.6619987487793 C31.73200035095215,-56.09299850463867 31.95400047302246,-56.527000427246094 32.19200134277344,-56.95500183105469 C23.37700080871582,-54.39699935913086 14.819000244140625,-50.4370002746582 6.828999996185303,-45 C-22.34000015258789,-25.179000854492188 -36.025001525878906,8.805999755859375 -31.263999938964844,41.4119987487793 C-24.465999603271484,45.68899917602539 -18.316999435424805,50.93199920654297 -13.010000228881836,56.95500183105469 C-16.426000595092773,15.878000259399414 -3.578000068664551,-25.299999237060547 23.44300079345703,-49.33700180053711z">
				</path>
			</g>
			<g opacity="1" transform="matrix(1,0,0,1,200.69200134277344,167.86000061035156)"
				style="mix-blend-mode: multiply;">
				<path fill="rgb(235,230,239)" fill-opacity="1"
					d=" M5.816999912261963,-0.5180000066757202 C6.1020002365112305,2.681999921798706 3.7290000915527344,5.508999824523926 0.515999972820282,5.795000076293945 C-2.697000026702881,6.080999851226807 -5.5320000648498535,3.7179999351501465 -5.816999912261963,0.5180000066757202 C-6.1020002365112305,-2.681999921798706 -3.7290000915527344,-5.508999824523926 -0.515999972820282,-5.795000076293945 C2.697000026702881,-6.080999851226807 5.5320000648498535,-3.7179999351501465 5.816999912261963,-0.5180000066757202z">
				</path>
			</g>
			<g opacity="1" transform="matrix(1,0,0,1,225.39999389648438,194.1020050048828)"
				style="mix-blend-mode: multiply;">
				<path fill="rgb(235,230,239)" fill-opacity="1"
					d=" M13.138999938964844,-1.1710000038146973 C13.782999992370605,6.057000160217285 8.42300033569336,12.442000389099121 1.1660000085830688,13.088000297546387 C-6.091000080108643,13.734000205993652 -12.494999885559082,8.39900016784668 -13.138999938964844,1.1710000038146973 C-13.782999992370605,-6.057000160217285 -8.42300033569336,-12.442000389099121 -1.1660000085830688,-13.088000297546387 C6.091000080108643,-13.734000205993652 12.494999885559082,-8.39900016784668 13.138999938964844,-1.1710000038146973z">
				</path>
			</g>
			<g opacity="1" transform="matrix(1,0,0,1,198.99600219726562,129.28700256347656)"
				style="mix-blend-mode: multiply;">
				<path fill="rgb(235,230,239)" fill-opacity="1"
					d=" M14.609000205993652,-1.3009999990463257 C15.324999809265137,6.736000061035156 9.364999771118164,13.833000183105469 1.2960000038146973,14.552000045776367 C-6.7729997634887695,15.270999908447266 -13.892999649047852,9.338000297546387 -14.609000205993652,1.3009999990463257 C-15.324999809265137,-6.736000061035156 -9.364999771118164,-13.833000183105469 -1.2960000038146973,-14.552000045776367 C6.7729997634887695,-15.270999908447266 13.892999649047852,-9.338000297546387 14.609000205993652,-1.3009999990463257z">
				</path>
			</g>
			<g opacity="1" transform="matrix(1,0,0,1,242.64999389648438,157.18899536132812)"
				style="mix-blend-mode: multiply;">
				<path fill="rgb(235,230,239)" fill-opacity="1"
					d=" M0.4339999854564667,-7.751999855041504 C-2.6730000972747803,-12.291999816894531 -5.297999858856201,-17.01799964904785 -7.456999778747559,-21.868999481201172 C-15.878000259399414,-17.829999923706055 -21.332000732421875,-8.906000137329102 -20.457000732421875,0.9110000133514404 C-19.329999923706055,13.565999984741211 -8.116000175476074,22.908000946044922 4.589000225067139,21.775999069213867 C11.109000205993652,21.19499969482422 16.75,17.96500015258789 20.548999786376953,13.25100040435791 C12.930000305175781,7.547999858856201 6.1020002365112305,0.5289999842643738 0.4339999854564667,-7.751999855041504z">
				</path>
			</g>
			<g opacity="1" transform="matrix(1,0,0,1,270.0530090332031,194.7899932861328)"
				style="mix-blend-mode: multiply;">
				<path fill="rgb(235,230,239)" fill-opacity="1"
					d=" M4.6479997634887695,-0.414000004529953 C4.875999927520752,2.1429998874664307 2.9790000915527344,4.400000095367432 0.41200000047683716,4.629000186920166 C-2.1549999713897705,4.857999801635742 -4.420000076293945,2.9709999561309814 -4.6479997634887695,0.414000004529953 C-4.875999927520752,-2.1429998874664307 -2.9790000915527344,-4.400000095367432 -0.41200000047683716,-4.629000186920166 C2.1549999713897705,-4.857999801635742 4.420000076293945,-2.9709999561309814 4.6479997634887695,-0.414000004529953z">
				</path>
			</g>
			<g opacity="1" transform="matrix(1,0,0,1,221.93099975585938,83.54199981689453)"
				style="mix-blend-mode: multiply;">
				<path fill="rgb(235,230,239)" fill-opacity="1"
					d=" M4.6479997634887695,-0.414000004529953 C4.875999927520752,2.1429998874664307 2.9790000915527344,4.400000095367432 0.41200000047683716,4.629000186920166 C-2.1549999713897705,4.857999801635742 -4.420000076293945,2.9709999561309814 -4.6479997634887695,0.414000004529953 C-4.875999927520752,-2.1429998874664307 -2.9790000915527344,-4.400000095367432 -0.41200000047683716,-4.629000186920166 C2.1549999713897705,-4.857999801635742 4.420000076293945,-2.9709999561309814 4.6479997634887695,-0.414000004529953z">
				</path>
			</g>
		</g>
		<g transform="matrix(1,0,0,1,350.43701171875,206.5970001220703)" opacity="1" style="display: block;">
			<g opacity="1" transform="matrix(1,0,0,1,0,0)">
				<path stroke-linecap="round" stroke-linejoin="round" fill-opacity="0" stroke="rgb(18,19,49)"
					stroke-opacity="1" stroke-width="7"
					d=" M88.99600219726562,-21.288000106811523 C82.88899993896484,-9.583000183105469 74.01799774169922,0.9089999794960022 62.56399917602539,9.135000228881836 C23.38800048828125,37.270999908447266 -31.184999465942383,28.31999969482422 -59.32099914550781,-10.855999946594238 C-87.46199798583984,-50.03900146484375 -78.50599670410156,-104.60600280761719 -39.33000183105469,-132.74200439453125 C-31.64900016784668,-138.25799560546875 -23.384000778198242,-142.3470001220703 -14.826000213623047,-145.0590057373047 C-29.632999420166016,-116.74700164794922 -28.295000076293945,-81.31900024414062 -8.38599967956543,-53.59700012207031 C14.23900032043457,-22.0939998626709 53.944000244140625,-10.142999649047852 88.99600219726562,-21.288000106811523z">
				</path>
			</g>
		</g>
		<g transform="matrix(0.949999988079071,0,0,0.949999988079071,-17.5,17.81549072265625)" opacity="1"
			style="display: block;">
			<path fill="rgb(235,230,239)" fill-opacity="1"
				d=" M228.04,400.66 C228.04,412.79 237.87,422.62 250,422.62 C262.13,422.62 271.96,412.79 271.96,400.66 C271.96,388.54 250,352.38 250,352.38 C250,352.38 228.04,388.54 228.04,400.66z M324.66,366.1 C324.66,375.13 331.97,382.44 341,382.44 C350.02,382.44 357.33,375.13 357.33,366.1 C357.33,357.08 341,330.18 341,330.18 C341,330.18 324.66,357.08 324.66,366.1z M142.67,366.1 C142.67,375.13 149.98,382.44 159,382.44 C168.03,382.44 175.34,375.13 175.34,366.1 C175.34,357.08 159,330.18 159,330.18 C159,330.18 142.67,357.08 142.67,366.1z">
			</path>
			<g opacity="1" transform="matrix(1,0,0,1,159.00399780273438,356.30999755859375)"></g>
		</g>
		<g transform="matrix(0.949999988079071,0,0,0.949999988079071,-17.5,17.81549072265625)" opacity="0.5"
			style="mix-blend-mode: multiply; display: block;">
			<path fill="rgb(235,230,239)" fill-opacity="1"
				d=" M228.04,400.66 C228.04,412.79 237.87,422.62 250,422.62 C251.88,422.62 253.64,421.88 255.44,421.94 C257.89,422.04 237.37,415.11 239.06,398.82 C240.26,387.3 245.99,379.01 257.07,364.66 C257.3,364.27 250,352.38 250,352.38 C250,352.38 228.04,388.54 228.04,400.66z M324.66,366.1 C324.66,375.13 331.97,382.44 341,382.44 C342.37,382.44 343.67,382.01 344.98,381.95 C345.66,381.77 332.9,378.09 332.07,365.97 C331.65,359.81 333.29,356.38 344.85,336.82 C345.41,335.88 341,330.18 341,330.18 C341,330.18 324.66,357.08 324.66,366.1z M142.67,366.1 C142.67,375.13 149.98,382.44 159,382.44 C160.25,382.44 161.44,381.9 162.63,382.03 C162.76,381.64 149.61,376.64 149.15,366.1 C148.89,359.98 153.95,349.14 162.96,337 C162.5,336.51 159,330.18 159,330.18 C159,330.18 142.67,357.08 142.67,366.1z">
			</path>
			<g opacity="1" transform="matrix(1,0,0,1,159.00399780273438,356.30999755859375)"></g>
		</g>
		<g transform="matrix(0.949999988079071,0,0,0.949999988079071,-17.5,17.81549072265625)" opacity="1"
			style="display: block;">
			<g opacity="1" transform="matrix(1,0,0,1,159.00399780273438,356.30999755859375)">
				<path stroke-linecap="round" stroke-linejoin="round" fill-opacity="0" stroke="rgb(18,19,49)"
					stroke-opacity="1" stroke-width="7"
					d=" M69.03900146484375,44.35499954223633 C69.03900146484375,56.481998443603516 78.86900329589844,66.31199645996094 90.99600219726562,66.31199645996094 C103.12300109863281,66.31199645996094 112.9530029296875,56.481998443603516 112.9530029296875,44.35499954223633 C112.9530029296875,32.22800064086914 90.99600219726562,-3.933000087738037 90.99600219726562,-3.933000087738037 C90.99600219726562,-3.933000087738037 69.03900146484375,32.22800064086914 69.03900146484375,44.35499954223633z M165.65699768066406,9.793999671936035 C165.65699768066406,18.81599998474121 172.97000122070312,26.128999710083008 181.99200439453125,26.128999710083008 C191.01400756835938,26.128999710083008 198.32699584960938,18.81599998474121 198.32699584960938,9.793999671936035 C198.32699584960938,0.7720000147819519 181.99200439453125,-26.128999710083008 181.99200439453125,-26.128999710083008 C181.99200439453125,-26.128999710083008 165.65699768066406,0.7720000147819519 165.65699768066406,9.793999671936035z M-16.334999084472656,9.793999671936035 C-16.334999084472656,18.81599998474121 -9.022000312805176,26.128999710083008 0,26.128999710083008 C9.022000312805176,26.128999710083008 16.334999084472656,18.81599998474121 16.334999084472656,9.793999671936035 C16.334999084472656,0.7720000147819519 0,-26.128999710083008 0,-26.128999710083008 C0,-26.128999710083008 -16.334999084472656,0.7720000147819519 -16.334999084472656,9.793999671936035z">
				</path>
			</g>
		</g>
		<g transform="matrix(0.9999860525131226,0,0,0.9999860525131226,98.0025405883789,-0.49591064453125)" opacity="1"
			style="display: block;">
			<g opacity="1" transform="matrix(1,0,0,1,122.98200225830078,205.72300720214844)">
				<path fill="rgb(255,255,255)" fill-opacity="1"
					d=" M98.77200317382812,-36.58100128173828 C83.16100311279297,-70.76300048828125 48.68600082397461,-94.51899719238281 8.652000427246094,-94.51899719238281 C-28.076000213623047,-94.51899719238281 -60.742000579833984,-73.78600311279297 -77.83300018310547,-44.08399963378906 C-98.04199981689453,-48.900001525878906 -116.83899688720703,-30.892000198364258 -113.822998046875,-10.345000267028809 C-130.927001953125,-0.7599999904632568 -142.4720001220703,17.54400062561035 -142.4720001220703,38.52799987792969 C-142.4720001220703,69.45700073242188 -117.40899658203125,94.51899719238281 -86.4800033569336,94.51899719238281 C-86.4800033569336,94.51899719238281 74.72200012207031,94.51899719238281 74.72200012207031,94.51899719238281 C112.14299774169922,94.51899719238281 142.4720001220703,64.19000244140625 142.4720001220703,26.768999099731445 C142.4720001220703,-2.187000036239624 124.31500244140625,-26.888999938964844 98.77200317382812,-36.58100128173828z">
				</path>
			</g>
			<g opacity="0.5" transform="matrix(1,0,0,1,75.94300079345703,205.72300720214844)"
				style="mix-blend-mode: multiply;">
				<path fill="rgb(255,255,255)" fill-opacity="1"
					d=" M-18.81999969482422,39.59400177001953 C-18.81999969482422,18.610000610351562 -7.275000095367432,0.3070000112056732 9.829000473022461,-9.277999877929688 C6.813000202178955,-29.825000762939453 25.610000610351562,-47.83300018310547 45.819000244140625,-43.016998291015625 C56.875999450683594,-62.231998443603516 74.45600128173828,-77.68399810791016 95.43299865722656,-86.20700073242188 C83.26799774169922,-91.54499816894531 69.8290023803711,-94.51899719238281 55.691001892089844,-94.51899719238281 C18.96299934387207,-94.51899719238281 -13.70300006866455,-73.78600311279297 -30.79400062561035,-44.08399963378906 C-51.00299835205078,-48.900001525878906 -69.80000305175781,-30.892000198364258 -66.78399658203125,-10.345000267028809 C-83.88800048828125,-0.7599999904632568 -95.43299865722656,17.54400062561035 -95.43299865722656,38.52799987792969 C-95.43299865722656,69.45700073242188 -70.37000274658203,94.51899719238281 -39.441001892089844,94.51899719238281 C-39.441001892089844,94.51899719238281 26.2810001373291,94.51899719238281 26.2810001373291,94.51899719238281 C0.5690000057220459,89.45099639892578 -18.81999969482422,66.79499816894531 -18.81999969482422,39.59400177001953z">
				</path>
			</g>
		</g>
		<g transform="matrix(2.861599922180176,0,0,2.861599922180176,221,205.08399963378906)" opacity="1"
			style="display: block;">
			<g opacity="1" transform="matrix(1,0,0,1,0,0)">
				<path stroke-linecap="round" stroke-linejoin="round" fill-opacity="0" stroke="rgb(18,19,49)"
					stroke-opacity="1" stroke-width="2.45"
					d=" M34.66299819946289,-13.180000305175781 C29.535999298095703,-25.198999404907227 17.61400032043457,-33.625 3.7219998836517334,-33.625 C-9.26200008392334,-33.625 -20.518999099731445,-26.26099967956543 -26.121999740600586,-15.486000061035156 C-27.139999389648438,-15.817000389099121 -28.225000381469727,-16 -29.354000091552734,-16 C-35.132999420166016,-16 -39.81700134277344,-11.3149995803833 -39.81700134277344,-5.535999774932861 C-39.81700134277344,-4.76200008392334 -39.72700119018555,-4.010000228881836 -39.56800079345703,-3.2839999198913574 C-45.79499816894531,-0.006000000052154064 -50.047000885009766,6.51800012588501 -50.047000885009766,14.043999671936035 C-50.047000885009766,24.857999801635742 -41.279998779296875,33.625 -30.465999603271484,33.625 C-24.732999801635742,33.625 22.198999404907227,33.625 25.80500030517578,33.625 C39.19300079345703,33.625 50.047000885009766,22.77199935913086 50.047000885009766,9.383999824523926 C50.047000885009766,-0.8769999742507935 43.667999267578125,-9.642000198364258 34.66299819946289,-13.180000305175781z">
				</path>
			</g>
		</g>
		<g transform="matrix(2.861599922180176,0,0,2.861599922180176,221,205.08399963378906)" opacity="1"
			style="display: block;">
			<g opacity="1" transform="matrix(1,0,0,1,0,0)">
				<path stroke-linecap="round" stroke-linejoin="round" fill-opacity="0" stroke="rgb(18,19,49)"
					stroke-opacity="1" stroke-width="2.45"
					d=" M-19.496000289916992,-9.069999694824219 C-20.952999114990234,-13.107000350952148 -24.808000564575195,-16 -29.347000122070312,-16 M34.58599853515625,-13.411999702453613 C36.375,-9.303000450134277 37.367000579833984,-4.76800012588501 37.367000579833984,0 C37.367000579833984,0 37.37799835205078,3.5510001182556152 36.145999908447266,7.908999919891357">
				</path>
			</g>
		</g>
	</g>
</svg>