<svg xmlns="http://www.w3.org/2000/svg" viewBox="0 0 500 500" width="500" height="500"
	preserveAspectRatio="xMidYMid meet"
	style="width: 100%; height: 100%; transform: translate3d(0px, 0px, 0px) scale(1.3); content-visibility: visible;">
	<defs>
		<clipPath id="__lottie_element_9832">
			<rect width="500" height="500" x="0" y="0"></rect>
		</clipPath>
	</defs>
	<g clip-path="url(#__lottie_element_9832)">
		<g transform="matrix(1,0,0,1,0,0)" opacity="1" style="display: block;">
			<g opacity="1" transform="matrix(1,0,0,1,0,0)">
				<path stroke-linecap="butt" stroke-linejoin="miter" fill-opacity="0" stroke-miterlimit="4"
					stroke="rgb(18,19,49)" stroke-opacity="1" stroke-width="2"
					d=" M151.1,368.09 C151.1,368.09 151.1,331.03 151.1,331.03 M132.57,349.56 C132.57,349.56 169.63,349.56 169.63,349.56 M138,336.46 C138,336.46 164.2,362.66 164.2,362.66 M138,362.66 C138,362.66 164.2,336.46 164.2,336.46">
				</path>
				<path stroke-linecap="butt" stroke-linejoin="miter" fill-opacity="0" stroke-miterlimit="4"
					stroke="rgb(255,255,255)" stroke-opacity="1" stroke-width="7"
					d=" M151.1,368.09 C151.1,368.09 151.1,331.03 151.1,331.03 M132.57,349.56 C132.57,349.56 169.63,349.56 169.63,349.56 M138,336.46 C138,336.46 164.2,362.66 164.2,362.66 M138,362.66 C138,362.66 164.2,336.46 164.2,336.46">
				</path>
				<g opacity="1" transform="matrix(1,0,0,1,151.1009979248047,349.5610046386719)">
					<path stroke-linecap="round" stroke-linejoin="round" fill-opacity="0" stroke="rgb(18,19,49)"
						stroke-opacity="1" stroke-width="7"
						d=" M0,18.527999877929688 C0,18.527999877929688 0,-18.527999877929688 0,-18.527999877929688 M-18.527999877929688,0 C-18.527999877929688,0 18.527999877929688,0 18.527999877929688,0 M-13.10099983215332,-13.10099983215332 C-13.10099983215332,-13.10099983215332 13.10099983215332,13.10099983215332 13.10099983215332,13.10099983215332 M-13.10099983215332,13.10099983215332 C-13.10099983215332,13.10099983215332 13.10099983215332,-13.10099983215332 13.10099983215332,-13.10099983215332">
					</path>
				</g>
			</g>
		</g>
		<g transform="matrix(1,0,0,1,198,0)" opacity="1" style="display: block;">
			<g opacity="1" transform="matrix(1,0,0,1,0,0)">
				<path stroke-linecap="butt" stroke-linejoin="miter" fill-opacity="0" stroke-miterlimit="4"
					stroke="rgb(18,19,49)" stroke-opacity="1" stroke-width="2"
					d=" M151.1,368.09 C151.1,368.09 151.1,331.03 151.1,331.03 M132.57,349.56 C132.57,349.56 169.63,349.56 169.63,349.56 M138,336.46 C138,336.46 164.2,362.66 164.2,362.66 M138,362.66 C138,362.66 164.2,336.46 164.2,336.46">
				</path>
				<path stroke-linecap="butt" stroke-linejoin="miter" fill-opacity="0" stroke-miterlimit="4"
					stroke="rgb(255,255,255)" stroke-opacity="1" stroke-width="7"
					d=" M151.1,368.09 C151.1,368.09 151.1,331.03 151.1,331.03 M132.57,349.56 C132.57,349.56 169.63,349.56 169.63,349.56 M138,336.46 C138,336.46 164.2,362.66 164.2,362.66 M138,362.66 C138,362.66 164.2,336.46 164.2,336.46">
				</path>
				<g opacity="1" transform="matrix(1,0,0,1,151.1009979248047,349.5610046386719)">
					<path stroke-linecap="round" stroke-linejoin="round" fill-opacity="0" stroke="rgb(18,19,49)"
						stroke-opacity="1" stroke-width="7"
						d=" M0,18.527999877929688 C0,18.527999877929688 0,-18.527999877929688 0,-18.527999877929688 M-18.527999877929688,0 C-18.527999877929688,0 18.527999877929688,0 18.527999877929688,0 M-13.10099983215332,-13.10099983215332 C-13.10099983215332,-13.10099983215332 13.10099983215332,13.10099983215332 13.10099983215332,13.10099983215332 M-13.10099983215332,13.10099983215332 C-13.10099983215332,13.10099983215332 13.10099983215332,-13.10099983215332 13.10099983215332,-13.10099983215332">
					</path>
				</g>
			</g>
		</g>
		<g transform="matrix(1,0,0,1,0,0.0000152587890625)" opacity="1" style="display: block;">
			<g opacity="1" transform="matrix(1,0,0,1,250,384.77398681640625)">
				<path stroke-linecap="round" stroke-linejoin="round" fill-opacity="0" stroke="rgb(18,19,49)"
					stroke-opacity="1" stroke-width="7"
					d=" M0,37.10100173950195 C0,37.10100173950195 0,-37.10100173950195 0,-37.10100173950195"></path>
			</g>
			<g opacity="1" transform="matrix(1,0,0,1,250,384.77398681640625)">
				<path stroke-linecap="round" stroke-linejoin="round" fill-opacity="0" stroke="rgb(18,19,49)"
					stroke-opacity="1" stroke-width="7"
					d=" M-37.10100173950195,0 C-37.10100173950195,0 37.10100173950195,0 37.10100173950195,0"></path>
			</g>
			<g opacity="1" transform="matrix(1,0,0,1,250,384.77398681640625)">
				<path stroke-linecap="round" stroke-linejoin="round" fill-opacity="0" stroke="rgb(18,19,49)"
					stroke-opacity="1" stroke-width="7"
					d=" M-26.233999252319336,-26.233999252319336 C-26.233999252319336,-26.233999252319336 26.233999252319336,26.233999252319336 26.233999252319336,26.233999252319336">
				</path>
			</g>
			<g opacity="1" transform="matrix(1,0,0,1,250,384.77398681640625)">
				<path stroke-linecap="round" stroke-linejoin="round" fill-opacity="0" stroke="rgb(18,19,49)"
					stroke-opacity="1" stroke-width="7"
					d=" M-26.233999252319336,26.233999252319336 C-26.233999252319336,26.233999252319336 26.233999252319336,-26.233999252319336 26.233999252319336,-26.233999252319336">
				</path>
			</g>
		</g>
		<g transform="matrix(1,0,0,1,1,6)" opacity="1" style="display: block;">
			<g opacity="1" transform="matrix(1,0,0,1,249.99600219726562,189.6439971923828)">
				<path fill="rgb(255,255,255)" fill-opacity="1"
					d=" M111.00299835205078,-41.111000061035156 C93.45899963378906,-79.5250015258789 54.71500015258789,-106.2239990234375 9.722999572753906,-106.2239990234375 C-31.55299949645996,-106.2239990234375 -65.01499938964844,-82.6729965209961 -84.22200012207031,-49.292999267578125 C-107.86699676513672,-55.32699966430664 -130.12399291992188,-35.928001403808594 -125.66799926757812,-12.12600040435791 C-144.88999938964844,-1.3539999723434448 -160.11500549316406,19.716999053955078 -160.11500549316406,43.29899978637695 C-160.11500549316406,78.05799865722656 -131.94900512695312,106.2239990234375 -97.19000244140625,106.2239990234375 C-97.19000244140625,106.2239990234375 83.9749984741211,106.2239990234375 83.9749984741211,106.2239990234375 C126.02999877929688,106.2239990234375 160.11500549316406,72.13899993896484 160.11500549316406,30.083999633789062 C160.11500549316406,-2.4570000171661377 139.70899963378906,-30.2189998626709 111.00299835205078,-41.111000061035156z">
				</path>
			</g>
			<g opacity="0.5" transform="matrix(1,0,0,1,197.13099670410156,189.6439971923828)"
				style="mix-blend-mode: multiply;">
				<path fill="rgb(255,255,255)" fill-opacity="1"
					d=" M-21.149999618530273,44.49800109863281 C-21.149999618530273,20.916000366210938 -8.175999641418457,0.3449999988079071 11.045999526977539,-10.427000045776367 C7.656000137329102,-33.518001556396484 28.7810001373291,-53.75600051879883 51.49300003051758,-48.34400177001953 C63.91899871826172,-69.93900299072266 83.677001953125,-87.30400085449219 107.2509994506836,-96.88200378417969 C93.5790023803711,-102.88099670410156 78.47699737548828,-106.2239990234375 62.5880012512207,-106.2239990234375 C21.312000274658203,-106.2239990234375 -12.149999618530273,-82.6729965209961 -31.35700035095215,-49.292999267578125 C-54.98500061035156,-55.92599868774414 -77.27799987792969,-36.6619987487793 -72.80400085449219,-12.12600040435791 C-92.0260009765625,-1.3539999723434448 -107.2509994506836,19.716999053955078 -107.2509994506836,43.29899978637695 C-107.2509994506836,78.05799865722656 -79.08399963378906,106.2239990234375 -44.32500076293945,106.2239990234375 C-44.32500076293945,106.2239990234375 29.53499984741211,106.2239990234375 29.53499984741211,106.2239990234375 C0.6389999985694885,100.52799987792969 -21.149999618530273,75.06800079345703 -21.149999618530273,44.49800109863281z">
				</path>
			</g>
		</g>
		<g transform="matrix(3.1682000160217285,0,0,3.1682000160217285,250,195.08399963378906)" opacity="1"
			style="display: block;">
			<g opacity="1" transform="matrix(1,0,0,1,0,0)">
				<path stroke-linecap="round" stroke-linejoin="round" fill-opacity="0" stroke="rgb(18,19,49)"
					stroke-opacity="1" stroke-width="2.45"
					d=" M34.66299819946289,-13.180000305175781 C29.535999298095703,-25.198999404907227 17.61400032043457,-33.625 3.7219998836517334,-33.625 C-9.26200008392334,-33.625 -20.518999099731445,-26.26099967956543 -26.121999740600586,-15.486000061035156 C-27.139999389648438,-15.817000389099121 -28.225000381469727,-16 -29.354000091552734,-16 C-35.132999420166016,-16 -39.81700134277344,-11.3149995803833 -39.81700134277344,-5.535999774932861 C-39.81700134277344,-4.76200008392334 -39.72700119018555,-4.010000228881836 -39.56800079345703,-3.2839999198913574 C-45.79499816894531,-0.006000000052154064 -50.047000885009766,6.51800012588501 -50.047000885009766,14.043999671936035 C-50.047000885009766,24.857999801635742 -41.279998779296875,33.625 -30.465999603271484,33.625 C-24.732999801635742,33.625 22.198999404907227,33.625 25.80500030517578,33.625 C39.19300079345703,33.625 50.047000885009766,22.77199935913086 50.047000885009766,9.383999824523926 C50.047000885009766,-0.8769999742507935 43.667999267578125,-9.642000198364258 34.66299819946289,-13.180000305175781z">
				</path>
			</g>
		</g>
		<g transform="matrix(3.1682000160217285,0,0,3.1682000160217285,250,195.08399963378906)" opacity="1"
			style="display: block;">
			<g opacity="1" transform="matrix(1,0,0,1,0,0)">
				<path stroke-linecap="round" stroke-linejoin="round" fill-opacity="0" stroke="rgb(18,19,49)"
					stroke-opacity="1" stroke-width="2.45"
					d=" M-19.496000289916992,-9.069999694824219 C-20.952999114990234,-13.107000350952148 -24.808000564575195,-16 -29.347000122070312,-16 M34.58599853515625,-13.411999702453613 C36.375,-9.303000450134277 37.367000579833984,-4.76800012588501 37.367000579833984,0 C37.367000579833984,0 37.37799835205078,3.5510001182556152 36.145999908447266,7.908999919891357">
				</path>
			</g>
		</g>
	</g>
</svg>