<svg xmlns="http://www.w3.org/2000/svg" viewBox="0 0 500 500" width="500" height="500"
	preserveAspectRatio="xMidYMid meet"
	style="width: 100%; height: 100%; transform: translate3d(0px, 0px, 0px) scale(1.3); content-visibility: visible;">
	<defs>
		<clipPath id="__lottie_element_9803">
			<rect width="500" height="500" x="0" y="0"></rect>
		</clipPath>
	</defs>
	<g clip-path="url(#__lottie_element_9803)">
		<g transform="matrix(1,0,0,1,0,0)" opacity="1" style="display: block;">
			<path fill="#9ce5f4" fill-opacity="1"
				d=" M324.66,366.1 C324.66,375.13 331.97,382.44 341,382.44 C350.02,382.44 357.33,375.13 357.33,366.1 C357.33,357.08 341,330.18 341,330.18 C341,330.18 324.66,357.08 324.66,366.1z M142.67,366.1 C142.67,375.13 149.98,382.44 159,382.44 C168.03,382.44 175.34,375.13 175.34,366.1 C175.34,357.08 159,330.18 159,330.18 C159,330.18 142.67,357.08 142.67,366.1z">
			</path>
			<g opacity="1" transform="matrix(1,0,0,1,340.9960021972656,356.30999755859375)"></g>
			<g opacity="1" transform="matrix(1,0,0,1,159.00399780273438,356.30999755859375)"></g>
		</g>
		<g transform="matrix(1,0,0,1,0,0)" opacity="0.5" style="mix-blend-mode: multiply; display: block;">
			<path fill="rgb(235,230,239)" fill-opacity="1"
				d=" M324.66,365.85 C324.66,374.88 332.37,383.07 341.37,382.44 C342.79,382.34 344.63,382.62 346.26,381.62 C346.75,381.81 331.88,376 331.58,366.1 C331.42,360.55 333.13,351.5 345.26,338.31 C344.63,337.62 341,329.93 341,329.93 C341,329.93 324.66,356.83 324.66,365.85z M142.67,366.1 C142.67,375.13 149.98,382.44 159,382.44 C161.23,382.44 163.38,382.05 165.29,381.19 C166,380.75 150.89,375.51 151.09,365.35 C151.25,357.25 157,347.75 163.85,338.58 C164,338.75 159,330.18 159,330.18 C159,330.18 142.67,357.08 142.67,366.1z">
			</path>
			<g opacity="1" transform="matrix(1,0,0,1,340.9960021972656,356.30999755859375)"></g>
			<g opacity="1" transform="matrix(1,0,0,1,159.00399780273438,356.30999755859375)"></g>
		</g>
		<g transform="matrix(1,0,0,1,0,0)" opacity="1" style="display: block;">
			<g opacity="1" transform="matrix(1,0,0,1,340.9960021972656,356.30999755859375)">
				<path stroke-linecap="round" stroke-linejoin="round" fill-opacity="0" stroke="rgb(18,19,49)"
					stroke-opacity="1" stroke-width="7"
					d=" M-16.334999084472656,9.793999671936035 C-16.334999084472656,18.81599998474121 -9.022000312805176,26.128999710083008 0,26.128999710083008 C9.022000312805176,26.128999710083008 16.334999084472656,18.81599998474121 16.334999084472656,9.793999671936035 C16.334999084472656,0.7720000147819519 0,-26.128999710083008 0,-26.128999710083008 C0,-26.128999710083008 -16.334999084472656,0.7720000147819519 -16.334999084472656,9.793999671936035z">
				</path>
			</g>
			<g opacity="1" transform="matrix(1,0,0,1,159.00399780273438,356.30999755859375)">
				<path stroke-linecap="round" stroke-linejoin="round" fill-opacity="0" stroke="rgb(18,19,49)"
					stroke-opacity="1" stroke-width="7"
					d=" M-16.334999084472656,9.793999671936035 C-16.334999084472656,18.81599998474121 -9.022000312805176,26.128999710083008 0,26.128999710083008 C9.022000312805176,26.128999710083008 16.334999084472656,18.81599998474121 16.334999084472656,9.793999671936035 C16.334999084472656,0.7720000147819519 0,-26.128999710083008 0,-26.128999710083008 C0,-26.128999710083008 -16.334999084472656,0.7720000147819519 -16.334999084472656,9.793999671936035z">
				</path>
			</g>
		</g>
		<g transform="matrix(1,0,0,1,0,0.0000152587890625)" opacity="1" style="display: block;">
			<g opacity="1" transform="matrix(1,0,0,1,250,384.77398681640625)">
				<path stroke-linecap="round" stroke-linejoin="round" fill-opacity="0" stroke="#9ce5f4"
					stroke-opacity="1" stroke-width="7"
					d=" M0,37.10100173950195 C0,37.10100173950195 0,-37.10100173950195 0,-37.10100173950195"></path>
			</g>
			<g opacity="1" transform="matrix(1,0,0,1,250,384.77398681640625)">
				<path stroke-linecap="round" stroke-linejoin="round" fill-opacity="0" stroke="#9ce5f4"
					stroke-opacity="1" stroke-width="7"
					d=" M-37.10100173950195,0 C-37.10100173950195,0 37.10100173950195,0 37.10100173950195,0"></path>
			</g>
			<g opacity="1" transform="matrix(1,0,0,1,250,384.77398681640625)">
				<path stroke-linecap="round" stroke-linejoin="round" fill-opacity="0" stroke="#9ce5f4"
					stroke-opacity="1" stroke-width="7"
					d=" M-26.233999252319336,-26.233999252319336 C-26.233999252319336,-26.233999252319336 26.233999252319336,26.233999252319336 26.233999252319336,26.233999252319336">
				</path>
			</g>
			<g opacity="1" transform="matrix(1,0,0,1,250,384.77398681640625)">
				<path stroke-linecap="round" stroke-linejoin="round" fill-opacity="0" stroke="#9ce5f4"
					stroke-opacity="1" stroke-width="7"
					d=" M-26.233999252319336,26.233999252319336 C-26.233999252319336,26.233999252319336 26.233999252319336,-26.233999252319336 26.233999252319336,-26.233999252319336">
				</path>
			</g>
		</g>
		<g transform="matrix(1.00001060962677,0,0,1.00001060962677,-0.1443939208984375,5.4981842041015625)" opacity="1"
			style="display: block;">
			<g opacity="1" transform="matrix(1,0,0,1,249.99600219726562,189.6439971923828)">
				<path fill="rgb(180,180,180)" fill-opacity="1"
					d=" M111.00299835205078,-41.111000061035156 C93.45899963378906,-79.5250015258789 55.96500015258789,-106.9739990234375 10.972999572753906,-106.9739990234375 C-30.30299949645996,-106.9739990234375 -62.76499938964844,-83.4229965209961 -81.97200012207031,-50.042999267578125 C-103.8550033569336,-59.64400100708008 -131.85400390625,-28.143999099731445 -124.91799926757812,-10.62600040435791 C-144.13999938964844,0.1459999978542328 -159.11500549316406,19.466999053955078 -159.11500549316406,43.04899978637695 C-159.11500549316406,77.80799865722656 -131.94900512695312,106.2239990234375 -97.19000244140625,106.2239990234375 C-97.19000244140625,106.2239990234375 83.9749984741211,106.2239990234375 83.9749984741211,106.2239990234375 C126.02999877929688,106.2239990234375 160.11500549316406,72.13899993896484 160.11500549316406,30.083999633789062 C160.11500549316406,-2.4570000171661377 139.70899963378906,-30.2189998626709 111.00299835205078,-41.111000061035156z">
				</path>
			</g>
			<g opacity="0.5" transform="matrix(1,0,0,1,197.13099670410156,189.6439971923828)"
				style="mix-blend-mode: multiply;">
				<path fill="rgb(180,180,180)" fill-opacity="1"
					d=" M-21.149999618530273,44.49800109863281 C-21.149999618530273,20.916000366210938 -8.175999641418457,0.3449999988079071 11.045999526977539,-10.427000045776367 C7.656000137329102,-33.518001556396484 28.7810001373291,-53.75600051879883 51.49300003051758,-48.34400177001953 C63.91899871826172,-69.93900299072266 83.927001953125,-88.30400085449219 107.5009994506836,-97.88200378417969 C93.8290023803711,-103.88099670410156 79.72699737548828,-106.9739990234375 63.8380012512207,-106.9739990234375 C22.562000274658203,-106.9739990234375 -9.899999618530273,-83.4229965209961 -29.10700035095215,-50.042999267578125 C-47.9900016784668,-57.14400100708008 -77.56900024414062,-36.69200134277344 -72.05400085449219,-10.62600040435791 C-91.2760009765625,0.1459999978542328 -106.2509994506836,19.466999053955078 -106.2509994506836,43.04899978637695 C-106.2509994506836,77.80799865722656 -79.08399963378906,106.2239990234375 -44.32500076293945,106.2239990234375 C-44.32500076293945,106.2239990234375 29.53499984741211,106.2239990234375 29.53499984741211,106.2239990234375 C0.6389999985694885,100.52799987792969 -21.149999618530273,75.06800079345703 -21.149999618530273,44.49800109863281z">
				</path>
			</g>
		</g>
		<g transform="matrix(3.1682000160217285,0,0,3.1682000160217285,250,195.08399963378906)" opacity="1"
			style="display: block;">
			<g opacity="1" transform="matrix(1,0,0,1,0,0)">
				<path stroke-linecap="round" stroke-linejoin="round" fill-opacity="0" stroke="rgb(18,19,49)"
					stroke-opacity="1" stroke-width="2.45"
					d=" M34.66299819946289,-13.180000305175781 C29.535999298095703,-25.198999404907227 17.61400032043457,-33.625 3.7219998836517334,-33.625 C-9.26200008392334,-33.625 -20.518999099731445,-26.26099967956543 -26.121999740600586,-15.486000061035156 C-27.139999389648438,-15.817000389099121 -28.225000381469727,-16 -29.354000091552734,-16 C-35.132999420166016,-16 -39.81700134277344,-11.3149995803833 -39.81700134277344,-5.535999774932861 C-39.81700134277344,-4.76200008392334 -39.72700119018555,-4.010000228881836 -39.56800079345703,-3.2839999198913574 C-45.79499816894531,-0.006000000052154064 -50.047000885009766,6.51800012588501 -50.047000885009766,14.043999671936035 C-50.047000885009766,24.857999801635742 -41.279998779296875,33.625 -30.465999603271484,33.625 C-24.732999801635742,33.625 22.198999404907227,33.625 25.80500030517578,33.625 C39.19300079345703,33.625 50.047000885009766,22.77199935913086 50.047000885009766,9.383999824523926 C50.047000885009766,-0.8769999742507935 43.667999267578125,-9.642000198364258 34.66299819946289,-13.180000305175781z">
				</path>
			</g>
		</g>
		<g transform="matrix(3.1682000160217285,0,0,3.1682000160217285,250,195.08399963378906)" opacity="1"
			style="display: block;">
			<g opacity="1" transform="matrix(1,0,0,1,0,0)">
				<path stroke-linecap="round" stroke-linejoin="round" fill-opacity="0" stroke="rgb(18,19,49)"
					stroke-opacity="1" stroke-width="2.45"
					d=" M-19.496000289916992,-9.069999694824219 C-20.952999114990234,-13.107000350952148 -24.808000564575195,-16 -29.347000122070312,-16 M34.58599853515625,-13.411999702453613 C36.375,-9.303000450134277 37.367000579833984,-4.76800012588501 37.367000579833984,0 C37.367000579833984,0 37.37799835205078,3.5510001182556152 36.145999908447266,7.908999919891357">
				</path>
			</g>
		</g>
	</g>
</svg>