<?xml version="1.0" encoding="utf-8"?>
<!-- Generator: Adobe Illustrator 24.1.2, SVG Export Plug-In . SVG Version: 6.00 Build 0)  -->
<svg version="1.1" id="Warstwa_3" xmlns="http://www.w3.org/2000/svg" xmlns:xlink="http://www.w3.org/1999/xlink" x="0px" y="0px"
	 viewBox="0 0 430 430" style="enable-background:new 0 0 430 430;" xml:space="preserve">
<style type="text/css">
	.st0{fill:#d1faf0;}
	.st1{fill:#ffffff;}
	.st2{fill:#d1faf0;}
	.st3{fill:none;}
</style>
<path class="st0" d="M349.69,221H375c3.31,0,6-2.69,6-6s-2.69-6-6-6h-25.32l29.79-29.79c2.34-2.34,2.34-6.14,0-8.49
	c-2.34-2.34-6.14-2.34-8.48,0L332.72,209h-46.66l29.79-29.79c2.34-2.34,2.34-6.14,0-8.49c-0.71-0.71-1.57-1.18-2.47-1.46
	c-0.07-0.02-0.13-0.04-0.2-0.06c-0.23-0.06-0.46-0.12-0.69-0.15c-0.26-0.04-0.52-0.07-0.79-0.08c-0.04,0-0.08-0.01-0.12-0.01
	c-0.02,0-0.03,0-0.05,0H269.4l32.67-32.67h54.13c3.31,0,6-2.69,6-6s-2.69-6-6-6h-42.13l18.28-18.28c2.34-2.34,2.34-6.14,0-8.49
	c-2.34-2.34-6.14-2.34-8.48,0l-18.28,18.28V73.69c0-3.31-2.69-6-6-6s-6,2.69-6,6v54.13l-32.67,32.67v-42.13
	c0-0.04-0.01-0.08-0.01-0.12c0-0.09-0.01-0.18-0.01-0.27c-0.01-0.13-0.02-0.27-0.04-0.4c-0.13-1.33-0.68-2.62-1.7-3.64
	c-2.34-2.34-6.14-2.34-8.48,0l-29.79,29.79V97.4l38.27-38.27c2.34-2.34,2.34-6.14,0-8.49c-2.34-2.34-6.14-2.34-8.48,0l-29.79,29.79
	V54.88c0-3.31-2.69-6-6-6s-6,2.69-6,6v25.55L179.1,50.64c-2.34-2.34-6.14-2.34-8.48,0c-2.34,2.34-2.34,6.14,0,8.49l38.27,38.27
	v46.32l-29.79-29.79c-2.34-2.34-6.14-2.34-8.48,0c-1.02,1.02-1.57,2.31-1.7,3.64c-0.02,0.13-0.03,0.26-0.04,0.4
	c0,0.09-0.01,0.18-0.01,0.27c0,0.04-0.01,0.08-0.01,0.12v42.13l-32.67-32.67V73.69c0-3.31-2.69-6-6-6s-6,2.69-6,6v42.13
	l-18.28-18.28c-2.34-2.34-6.14-2.34-8.48,0c-2.34,2.34-2.34,6.14,0,8.49l18.28,18.28H73.57c-3.31,0-6,2.69-6,6s2.69,6,6,6h54.13
	l32.67,32.67h-41.91c0,0,0,0,0,0h-0.22c-3.31,0-6,2.69-6,6c0,2.14,1.12,4.01,2.81,5.07L144.01,209H97.28l-38.27-38.27
	c-2.34-2.34-6.14-2.34-8.48,0c-2.34,2.34-2.34,6.14,0,8.49L80.31,209H54.77c-3.31,0-6,2.69-6,6s2.69,6,6,6h25.54l-29.79,29.79
	c-2.34,2.34-2.34,6.14,0,8.49c1.17,1.17,2.71,1.76,4.24,1.76s3.07-0.59,4.24-1.76L97.28,221h46.73l-28.96,28.96
	c-1.68,1.06-2.81,2.93-2.81,5.07c0,3.31,2.69,6,6,6h42.13L127.7,293.7H73.57c-3.31,0-6,2.69-6,6s2.69,6,6,6h42.12l-18.27,18.27
	c-2.34,2.34-2.34,6.14,0,8.49c1.17,1.17,2.71,1.76,4.24,1.76c1.54,0,3.07-0.59,4.24-1.76l18.28-18.28v42.13c0,3.31,2.69,6,6,6
	s6-2.69,6-6v-54.13l32.67-32.67v42.13c0,0.38,0.04,0.75,0.11,1.1c0,0.02,0,0.04,0.01,0.06c0.07,0.36,0.18,0.71,0.31,1.04
	c0.01,0.03,0.02,0.05,0.03,0.08c0.14,0.34,0.31,0.67,0.51,0.97c0.01,0.02,0.02,0.04,0.04,0.06c0.44,0.66,1.01,1.23,1.68,1.68
	c0.02,0.02,0.05,0.03,0.07,0.04c0.31,0.2,0.63,0.37,0.97,0.51c0.03,0.01,0.06,0.02,0.08,0.03c0.33,0.13,0.68,0.24,1.04,0.31
	c0.02,0,0.04,0.01,0.06,0.01c0.36,0.07,0.73,0.11,1.1,0.11c0.38,0,0.75-0.04,1.1-0.11c0.02,0,0.04-0.01,0.06-0.01
	c0.36-0.07,0.71-0.18,1.04-0.31c0.03-0.01,0.05-0.02,0.08-0.03c0.34-0.14,0.67-0.31,0.97-0.51c0.02-0.01,0.04-0.03,0.07-0.04
	c0.33-0.22,0.64-0.47,0.93-0.76l29.79-29.78v46.51l-38.27,38.27c-2.34,2.34-2.34,6.14,0,8.49c1.17,1.17,2.71,1.76,4.24,1.76
	c1.54,0,3.07-0.59,4.24-1.76l29.79-29.79v25.55c0,3.31,2.69,6,6,6s6-2.69,6-6v-25.54l29.79,29.79c1.17,1.17,2.71,1.76,4.24,1.76
	c1.54,0,3.07-0.59,4.24-1.76c2.34-2.34,2.34-6.14,0-8.49l-38.27-38.27V286.1l29.78,29.78c0.28,0.28,0.59,0.53,0.92,0.76
	c0.02,0.02,0.05,0.03,0.07,0.04c0.31,0.2,0.63,0.37,0.97,0.51c0.03,0.01,0.06,0.02,0.08,0.03c0.33,0.13,0.68,0.24,1.04,0.31
	c0.02,0,0.04,0.01,0.06,0.01c0.36,0.07,0.73,0.11,1.1,0.11c0.38,0,0.75-0.04,1.1-0.11c0.02,0,0.04-0.01,0.06-0.01
	c0.36-0.07,0.71-0.18,1.04-0.31c0.03-0.01,0.05-0.02,0.08-0.03c0.34-0.14,0.67-0.31,0.97-0.51c0.02-0.01,0.04-0.03,0.07-0.04
	c0.66-0.44,1.23-1.01,1.68-1.68c0.01-0.02,0.02-0.04,0.04-0.06c0.2-0.31,0.37-0.63,0.51-0.97c0.01-0.03,0.02-0.05,0.03-0.08
	c0.13-0.33,0.24-0.68,0.31-1.04c0-0.02,0.01-0.04,0.01-0.06c0.07-0.36,0.11-0.73,0.11-1.1v-42.13l32.67,32.67v54.13
	c0,3.31,2.69,6,6,6s6-2.69,6-6v-42.13l18.28,18.28c1.17,1.17,2.71,1.76,4.24,1.76s3.07-0.59,4.24-1.76c2.34-2.34,2.34-6.14,0-8.49
	l-18.27-18.27h42.12c3.31,0,6-2.69,6-6s-2.69-6-6-6h-54.12l-32.68-32.67h42.13c0.02,0,0.04,0,0.05,0c0.01,0,0.02,0,0.03,0
	c0.03,0,0.06-0.01,0.09-0.01c0.27-0.01,0.54-0.03,0.8-0.08c0.23-0.03,0.46-0.09,0.68-0.15c0.07-0.02,0.14-0.04,0.21-0.06
	c0.9-0.28,1.75-0.75,2.46-1.46c2.34-2.34,2.34-6.14,0-8.49L286.06,221h46.66l38.27,38.27c1.17,1.17,2.71,1.76,4.24,1.76
	c1.54,0,3.07-0.59,4.24-1.76c2.34-2.34,2.34-6.14,0-8.49L349.69,221z M297.12,180.97L269.09,209h-39.72l28.03-28.03H297.12z
	 M248.92,297.16l-28.03-28.03v-39.64l28.03,28.03V297.16z M172.37,249.03h-39.42L160.98,221h39.42L172.37,249.03z M248.92,172.49
	l-28.03,28.03v-39.83l28.03-28.03V172.49z M180.86,132.66l28.03,28.03v39.83l-28.03-28.03V132.66z M132.95,180.97h39.42L200.4,209
	h-39.42L132.95,180.97z M208.89,229.48v39.64l-28.03,28.03v-39.64L208.89,229.48z M229.37,221h39.72l28.03,28.03H257.4L229.37,221z"
	/>
</svg>
