<svg xmlns="http://www.w3.org/2000/svg" viewBox="0 0 500 500" width="500" height="500"
	preserveAspectRatio="xMidYMid meet"
	style="width: 100%; height: 100%; transform: translate3d(0px, 0px, 0px) scale(1.3); content-visibility: visible;">
	<defs>
		<clipPath id="__lottie_element_9884">
			<rect width="500" height="500" x="0" y="0"></rect>
		</clipPath>
	</defs>
	<g clip-path="url(#__lottie_element_9884)">
		<g transform="matrix(0.7071067690849304,-0.7071067690849304,0.7071067690849304,0.7071067690849304,337.83538818359375,162.16461181640625)"
			opacity="1" style="display: block;">
			<g opacity="1" transform="matrix(1,0,0,1,0,0)">
				<path stroke-linecap="round" stroke-linejoin="round" fill-opacity="0" stroke="rgb(18,19,49)"
					stroke-opacity="1" stroke-width="7"
					d=" M-2.559000015258789,0 C20.55900001525879,0 49.22600173950195,0 62.560001373291016,0"></path>
			</g>
		</g>
		<g transform="matrix(1,0,0,1,374.218017578125,250)" opacity="1" style="display: block;">
			<g opacity="1" transform="matrix(1,0,0,1,0,0)">
				<path stroke-linecap="round" stroke-linejoin="round" fill-opacity="0" stroke="rgb(18,19,49)"
					stroke-opacity="1" stroke-width="7"
					d=" M-2.559000015258789,0 C9.729000091552734,0 23.584999084472656,0 35.87300109863281,0"></path>
			</g>
		</g>
		<g transform="matrix(0.7071067690849304,0.7071067690849304,-0.7071067690849304,0.7071067690849304,337.83538818359375,337.83538818359375)"
			opacity="1" style="display: block;">
			<g opacity="1" transform="matrix(1,0,0,1,0,0)">
				<path stroke-linecap="round" stroke-linejoin="round" fill-opacity="0" stroke="rgb(18,19,49)"
					stroke-opacity="1" stroke-width="7"
					d=" M-2.559000015258789,0 C20.55900001525879,0 49.22600173950195,0 62.560001373291016,0"></path>
			</g>
		</g>
		<g transform="matrix(0,1,-1,0,250,374.218017578125)" opacity="1" style="display: block;">
			<g opacity="1" transform="matrix(1,0,0,1,0,0)">
				<path stroke-linecap="round" stroke-linejoin="round" fill-opacity="0" stroke="rgb(18,19,49)"
					stroke-opacity="1" stroke-width="7"
					d=" M-2.559000015258789,0 C9.729000091552734,0 23.584999084472656,0 35.87300109863281,0"></path>
			</g>
		</g>
		<g transform="matrix(-0.7071067690849304,0.7071067690849304,-0.7071067690849304,-0.7071067690849304,162.16461181640625,337.83538818359375)"
			opacity="1" style="display: block;">
			<g opacity="1" transform="matrix(1,0,0,1,0,0)">
				<path stroke-linecap="round" stroke-linejoin="round" fill-opacity="0" stroke="rgb(18,19,49)"
					stroke-opacity="1" stroke-width="7"
					d=" M-2.559000015258789,0 C20.55900001525879,0 49.22600173950195,0 62.560001373291016,0"></path>
			</g>
		</g>
		<g transform="matrix(-1,0,0,-1,125.78199768066406,250)" opacity="1" style="display: block;">
			<g opacity="1" transform="matrix(1,0,0,1,0,0)">
				<path stroke-linecap="round" stroke-linejoin="round" fill-opacity="0" stroke="rgb(18,19,49)"
					stroke-opacity="1" stroke-width="7"
					d=" M-2.559000015258789,0 C9.729000091552734,0 23.584999084472656,0 35.87300109863281,0"></path>
			</g>
		</g>
		<g transform="matrix(-0.7071067690849304,-0.7071067690849304,0.7071067690849304,-0.7071067690849304,162.16461181640625,162.16461181640625)"
			opacity="1" style="display: block;">
			<g opacity="1" transform="matrix(1,0,0,1,0,0)">
				<path stroke-linecap="round" stroke-linejoin="round" fill-opacity="0" stroke="rgb(18,19,49)"
					stroke-opacity="1" stroke-width="7"
					d=" M-2.559000015258789,0 C20.55900001525879,0 49.22600173950195,0 62.560001373291016,0"></path>
			</g>
		</g>
		<g transform="matrix(0,-1,1,0,250,125.78199768066406)" opacity="1" style="display: block;">
			<g opacity="1" transform="matrix(1,0,0,1,0,0)">
				<path stroke-linecap="round" stroke-linejoin="round" fill-opacity="0" stroke="rgb(18,19,49)"
					stroke-opacity="1" stroke-width="7"
					d=" M-2.559000015258789,0 C9.729000091552734,0 23.584999084472656,0 35.87300109863281,0"></path>
			</g>
		</g>
		<g transform="matrix(1,0,0,1,250,250)" opacity="1" style="display: block;">
			<g opacity="1" transform="matrix(1,0,0,1,0,0)">
				<path fill="rgb(255,199,56)" fill-opacity="1"
					d=" M-86,0 C-86,47.49599838256836 -47.49599838256836,86 0,86 C47.49599838256836,86 86,47.49599838256836 86,0 C86,-47.49599838256836 47.49599838256836,-86 0,-86 C-47.49599838256836,-86 -86,-47.49599838256836 -86,0z">
				</path>
				<path stroke-linecap="round" stroke-linejoin="round" fill-opacity="0" stroke="rgb(18,19,49)"
					stroke-opacity="1" stroke-width="7"
					d=" M-86,0 C-86,47.49599838256836 -47.49599838256836,86 0,86 C47.49599838256836,86 86,47.49599838256836 86,0 C86,-47.49599838256836 47.49599838256836,-86 0,-86 C-47.49599838256836,-86 -86,-47.49599838256836 -86,0z">
				</path>
			</g>
		</g>
		<g transform="matrix(1,0,0,1,223.05799865722656,250)" opacity="0.5"
			style="mix-blend-mode: multiply; display: block;">
			<g opacity="1" transform="matrix(1,0,0,1,0,0)" style="mix-blend-mode: multiply;">
				<path fill="rgb(255,199,56)" fill-opacity="1"
					d=" M50.617000579833984,80.00399780273438 C3.1459999084472656,80.00399780273438 -35.33700180053711,41.520999908447266 -35.33700180053711,-5.949999809265137 C-35.33700180053711,-42.191001892089844 -12.895999908447266,-73.1709976196289 18.83799934387207,-85.81099700927734 C-24.860000610351562,-81.7249984741211 -59.064998626708984,-44.96200180053711 -59.064998626708984,-0.19599999487400055 C-59.064998626708984,47.30400085449219 -20.558000564575195,85.81099700927734 26.941999435424805,85.81099700927734 C38.301998138427734,85.81099700927734 49.137001037597656,83.58699798583984 59.064998626708984,79.58599853515625 C56.28499984741211,79.85700225830078 53.46799850463867,80.00399780273438 50.617000579833984,80.00399780273438z">
				</path>
			</g>
		</g>
	</g>
</svg>