<svg xmlns="http://www.w3.org/2000/svg" viewBox="0 0 500 500" width="500" height="500"
	preserveAspectRatio="xMidYMid meet"
	style="width: 100%; height: 100%; transform: translate3d(0px, 0px, 0px) scale(1.3); content-visibility: visible;">
	<defs>
		<clipPath id="__lottie_element_9922">
			<rect width="500" height="500" x="0" y="0"></rect>
		</clipPath>
	</defs>
	<g clip-path="url(#__lottie_element_9922)">
		<g transform="matrix(1,0,0,1,-4.5000152587890625,3)" opacity="1" style="display: block;">
			<g opacity="1" transform="matrix(1,0,0,1,332.1929931640625,218.13999938964844)">
				<path fill="rgb(255,255,255)" fill-opacity="1"
					d=" M83.38500213623047,-9.25 C83.38400268554688,-9.25100040435791 83.38200378417969,-9.251999855041504 83.38099670410156,-9.253000259399414 C83.38800048828125,-9.27299976348877 83.38999938964844,-9.298999786376953 83.38999938964844,-9.326000213623047 C83.54000091552734,-10.586000442504883 83.62999725341797,-11.854999542236328 83.66999816894531,-13.154999732971191 C83.66999816894531,-13.154999732971191 83.69999694824219,-14.175000190734863 83.69999694824219,-14.675000190734863 C83.69999694824219,-40.21500015258789 62.9900016784668,-60.92599868774414 37.45000076293945,-60.92599868774414 C36.34000015258789,-60.92599868774414 35.2400016784668,-60.88600158691406 34.150001525878906,-60.816001892089844 C34.141998291015625,-60.814998626708984 34.13399887084961,-60.81399917602539 34.125999450683594,-60.8129997253418 C34.125999450683594,-60.8129997253418 34.154998779296875,-60.81999969482422 34.154998779296875,-60.81999969482422 C18.344999313354492,-75.54000091552734 -2.8450000286102295,-84.52999877929688 -26.145000457763672,-84.52999877929688 C-61.94499969482422,-84.52999877929688 -92.78500366210938,-63.279998779296875 -106.74500274658203,-32.709999084472656 C-107.56500244140625,-30.90999984741211 -108.32499694824219,-29.09000015258789 -109.01499938964844,-27.239999771118164 C-112.81800079345703,-21.139999389648438 -116.7239990234375,-17.47100067138672 -114.4540023803711,-16.836999893188477 C-111.54100036621094,19.78499984741211 -96.37799835205078,47.90800094604492 -93.46499633789062,84.52999877929688 C-93.46499633789062,84.52999877929688 -10.03499984741211,84.52999877929688 -10.03499984741211,84.52999877929688 C-10.03499984741211,84.52999877929688 -2.75600004196167,84.52999877929688 -2.75600004196167,84.52999877929688 C-2.75600004196167,84.52999877929688 58.935001373291016,84.52999877929688 58.935001373291016,84.52999877929688 C86.59500122070312,84.52999877929688 109.01499938964844,62.119998931884766 109.01499938964844,34.459999084472656 C109.01499938964844,15.6899995803833 98.68499755859375,-0.6800000071525574 83.38500213623047,-9.25z">
				</path>
				<path fill="rgb(255,255,255)" fill-opacity="0.5"
					d=" M83.38500213623047,-9.25 C83.38400268554688,-9.25100040435791 83.38200378417969,-9.251999855041504 83.38099670410156,-9.253000259399414 C83.38800048828125,-9.27299976348877 83.38999938964844,-9.298999786376953 83.38999938964844,-9.326000213623047 C83.54000091552734,-10.586000442504883 83.62999725341797,-11.854999542236328 83.66999816894531,-13.154999732971191 C83.66999816894531,-13.154999732971191 83.69999694824219,-14.175000190734863 83.69999694824219,-14.675000190734863 C83.69999694824219,-40.21500015258789 62.9900016784668,-60.92599868774414 37.45000076293945,-60.92599868774414 C36.34000015258789,-60.92599868774414 35.2400016784668,-60.88600158691406 34.150001525878906,-60.816001892089844 C34.141998291015625,-60.814998626708984 34.13399887084961,-60.81399917602539 34.125999450683594,-60.8129997253418 C34.125999450683594,-60.8129997253418 34.154998779296875,-60.81999969482422 34.154998779296875,-60.81999969482422 C18.344999313354492,-75.54000091552734 -2.8450000286102295,-84.52999877929688 -26.145000457763672,-84.52999877929688 C-61.94499969482422,-84.52999877929688 -92.78500366210938,-63.279998779296875 -106.74500274658203,-32.709999084472656 C-107.56500244140625,-30.90999984741211 -108.32499694824219,-29.09000015258789 -109.01499938964844,-27.239999771118164 C-112.81800079345703,-21.139999389648438 -116.7239990234375,-17.47100067138672 -114.4540023803711,-16.836999893188477 C-111.54100036621094,19.78499984741211 -96.37799835205078,47.90800094604492 -93.46499633789062,84.52999877929688 C-93.46499633789062,84.52999877929688 -10.03499984741211,84.52999877929688 -10.03499984741211,84.52999877929688 C-10.03499984741211,84.52999877929688 -2.75600004196167,84.52999877929688 -2.75600004196167,84.52999877929688 C-2.75600004196167,84.52999877929688 58.935001373291016,84.52999877929688 58.935001373291016,84.52999877929688 C86.59500122070312,84.52999877929688 109.01499938964844,62.119998931884766 109.01499938964844,34.459999084472656 C109.01499938964844,15.6899995803833 98.68499755859375,-0.6800000071525574 83.38500213623047,-9.25z"
					style="mix-blend-mode: multiply;"></path>
			</g>
		</g>
		<g transform="matrix(1,0,0,1,-0.0000152587890625,0)" opacity="1" style="display: block;">
			<g opacity="1" transform="matrix(1,0,0,1,287.5199890136719,190.1699981689453)">
				<path stroke-linecap="round" stroke-linejoin="round" fill-opacity="0" stroke="rgb(18,19,49)"
					stroke-opacity="1" stroke-width="7"
					d=" M-73.04000091552734,52.15999984741211 C-76.20999908447266,34.4900016784668 -73.93000030517578,15.989999771118164 -66.47000122070312,-0.3400000035762787 C-52.5099983215332,-30.90999984741211 -21.670000076293945,-52.15999984741211 14.130000114440918,-52.15999984741211 C37.43000030517578,-52.15999984741211 58.619998931884766,-43.16999816894531 74.43000030517578,-28.450000762939453 M123.66000366210938,23.1200008392334 C138.9600067138672,31.690000534057617 149.2899932861328,48.060001373291016 149.2899932861328,66.83000183105469 C149.2899932861328,94.48999786376953 126.87000274658203,116.9000015258789 99.20999908447266,116.9000015258789 C99.20999908447266,116.9000015258789 -44.959999084472656,116.9000015258789 -44.959999084472656,116.9000015258789 C-78.43000030517578,116.9000015258789 -105.55000305175781,89.77999877929688 -105.55000305175781,56.310001373291016 C-105.55000305175781,30.420000076293945 -89.30999755859375,8.319999694824219 -66.47000122070312,-0.3400000035762787">
				</path>
			</g>
			<g opacity="1" transform="matrix(1,0,0,1,364.75,206.5)">
				<path stroke-linecap="round" stroke-linejoin="round" fill-opacity="0" stroke="rgb(18,19,49)"
					stroke-opacity="1" stroke-width="7"
					d=" M46.32699966430664,5.4670000076293945 C46.441001892089844,4.139999866485596 46.5,2.7960000038146973 46.5,1.437999963760376 C46.5,-24.070999145507812 25.82200050354004,-44.75 0.31299999356269836,-44.75 C0.31299999356269836,-44.75 0.31299999356269836,-44.75 0.31299999356269836,-44.75 C-25.195999145507812,-44.75 -45.875,-24.070999145507812 -45.875,1.437999963760376 C-45.875,8.071000099182129 -44.47700119018555,14.376999855041504 -41.959999084472656,20.07699966430664">
				</path>
			</g>
		</g>
		<g transform="matrix(1.0000014305114746,0,0,1.0000014305114746,-2.9996185302734375,4.999359130859375)"
			opacity="1" style="display: block;">
			<g opacity="1" transform="matrix(1,0,0,1,195.00599670410156,273.06201171875)">
				<path fill="rgb(255,255,255)" fill-opacity="1"
					d=" M88.33599853515625,-32.715999603271484 C74.375,-63.2859992980957 43.54199981689453,-84.53199768066406 7.73799991607666,-84.53199768066406 C-25.108999252319336,-84.53199768066406 -54.32400131225586,-65.98999786376953 -69.60900115966797,-39.42599868774414 C-87.68299865722656,-43.733001708984375 -104.49299621582031,-27.628000259399414 -101.7959976196289,-9.251999855041504 C-117.09300231933594,-0.6790000200271606 -127.41799926757812,15.690999984741211 -127.41799926757812,34.457000732421875 C-127.41799926757812,62.11800003051758 -105.00399780273438,84.53199768066406 -77.34300231933594,84.53199768066406 C-77.34300231933594,84.53199768066406 66.8270034790039,84.53199768066406 66.8270034790039,84.53199768066406 C100.29399871826172,84.53199768066406 127.41799926757812,57.40800094604492 127.41799926757812,23.94099998474121 C127.41799926757812,-1.9550000429153442 111.18000030517578,-24.04800033569336 88.33599853515625,-32.715999603271484z">
				</path>
			</g>
			<g opacity="0.5" transform="matrix(1,0,0,1,152.93699645996094,273.06201171875)"
				style="mix-blend-mode: multiply;">
				<path fill="rgb(255,255,255)" fill-opacity="1"
					d=" M-16.83099937438965,35.4109992980957 C-16.83099937438965,16.645000457763672 -6.50600004196167,0.2750000059604645 8.791000366210938,-8.29800033569336 C6.093999862670898,-26.673999786376953 22.90399932861328,-42.77899932861328 40.97800064086914,-38.47200012207031 C50.86600112915039,-55.65700149536133 66.58899688720703,-69.47599792480469 85.3489990234375,-77.0979995727539 C74.46900177001953,-81.87200164794922 62.45100021362305,-84.53199768066406 49.80699920654297,-84.53199768066406 C16.959999084472656,-84.53199768066406 -12.255000114440918,-65.98999786376953 -27.540000915527344,-39.42599868774414 C-45.61399841308594,-43.733001708984375 -62.42399978637695,-27.628000259399414 -59.72700119018555,-9.251999855041504 C-75.02400207519531,-0.6790000200271606 -85.3489990234375,15.690999984741211 -85.3489990234375,34.457000732421875 C-85.3489990234375,62.11800003051758 -62.935001373291016,84.53199768066406 -35.27399826049805,84.53199768066406 C-35.27399826049805,84.53199768066406 23.503999710083008,84.53199768066406 23.503999710083008,84.53199768066406 C0.5090000033378601,79.9990005493164 -16.83099937438965,59.737998962402344 -16.83099937438965,35.4109992980957z">
				</path>
			</g>
		</g>
		<g transform="matrix(2.555000066757202,0,0,2.555000066757202,191,277.583984375)" opacity="1"
			style="display: block;">
			<g opacity="1" transform="matrix(1,0,0,1,0,0)">
				<path stroke-linecap="round" stroke-linejoin="round" fill-opacity="0" stroke="rgb(18,19,49)"
					stroke-opacity="1" stroke-width="3.01"
					d=" M-19.496000289916992,-9.069999694824219 C-20.952999114990234,-13.107000350952148 -24.808000564575195,-16 -29.347000122070312,-16 M34.58599853515625,-13.411999702453613 C36.375,-9.303000450134277 37.367000579833984,-4.76800012588501 37.367000579833984,0 C37.367000579833984,0 37.37799835205078,3.5510001182556152 36.145999908447266,7.908999919891357">
				</path>
			</g>
		</g>
		<g transform="matrix(2.555000066757202,0,0,2.555000066757202,191,277.583984375)" opacity="1"
			style="display: block;">
			<g opacity="1" transform="matrix(1,0,0,1,0,0)">
				<path stroke-linecap="round" stroke-linejoin="round" fill-opacity="0" stroke="rgb(18,19,49)"
					stroke-opacity="1" stroke-width="3.01"
					d=" M34.66299819946289,-13.180000305175781 C29.535999298095703,-25.198999404907227 17.61400032043457,-33.625 3.7219998836517334,-33.625 C-9.26200008392334,-33.625 -20.518999099731445,-26.26099967956543 -26.121999740600586,-15.486000061035156 C-27.139999389648438,-15.817000389099121 -28.225000381469727,-16 -29.354000091552734,-16 C-35.132999420166016,-16 -39.81700134277344,-11.3149995803833 -39.81700134277344,-5.535999774932861 C-39.81700134277344,-4.76200008392334 -39.72700119018555,-4.010000228881836 -39.56800079345703,-3.2839999198913574 C-45.79499816894531,-0.006000000052154064 -50.047000885009766,6.51800012588501 -50.047000885009766,14.043999671936035 C-50.047000885009766,24.857999801635742 -41.279998779296875,33.625 -30.465999603271484,33.625 C-24.732999801635742,33.625 22.198999404907227,33.625 25.80500030517578,33.625 C39.19300079345703,33.625 50.047000885009766,22.77199935913086 50.047000885009766,9.383999824523926 C50.047000885009766,-0.8769999742507935 43.667999267578125,-9.642000198364258 34.66299819946289,-13.180000305175781z">
				</path>
			</g>
		</g>
	</g>
</svg>