<svg xmlns="http://www.w3.org/2000/svg" viewBox="0 0 430 430">
  <defs>
    <style>
      .cls-1 {
        isolation: isolate;
      }

      .cls-2, .cls-3 {
        fill: #9ce5f4;
      }

      .cls-3 {
        mix-blend-mode: multiply;
        opacity: 0.5;
      }

      .cls-4 {
        fill: #121331;
      }
    </style>
  </defs>
  <g class="cls-1">
    <g id="Warstwa_1" data-name="Warstwa 1">
      <g>
        <path class="cls-2" d="M311.65,276.29a96.65,96.65,0,1,1-193.3,0C118.35,222.92,208,65,215,57.06,222.47,64.53,311.65,222.92,311.65,276.29Z"/>
        <path class="cls-3" d="M136.88,275.75c0-44.67,62.74-162.53,87.34-204.45-4.71-7.93-8-13-9.22-14.24-7,7.91-96.65,165.86-96.65,219.23A96.65,96.65,0,0,0,215,372.94a97.66,97.66,0,0,0,12.16-.76A96.65,96.65,0,0,1,136.88,275.75Z"/>
        <g>
          <path class="cls-4" d="M215,376.44A100.27,100.27,0,0,1,114.85,276.29c0-28.9,25.05-85.67,46.05-128.21C183.64,102,208.24,59.4,212.38,54.74a3.49,3.49,0,0,1,5.09-.15c4.56,4.56,29.58,48.18,51.79,93.33,20.93,42.53,45.89,99.33,45.89,128.37A100.27,100.27,0,0,1,215,376.44Zm.08-313.35c-7.33,11.54-27.68,47.15-47.9,88.09-20.68,41.87-45.33,97.56-45.33,125.11a93.15,93.15,0,1,0,186.3,0c0-21.6-16-66.08-45.15-125.25C242.56,109.51,222.41,74.33,215.08,63.09Z"/>
          <path class="cls-4" d="M216.62,349.55a3.5,3.5,0,0,1,0-7A65.59,65.59,0,0,0,282.14,277a3.5,3.5,0,0,1,7,0A72.6,72.6,0,0,1,216.62,349.55Z"/>
        </g>
      </g>
    </g>
  </g>
</svg>
