<svg xmlns="http://www.w3.org/2000/svg" viewBox="0 0 500 500" width="500" height="500"
	preserveAspectRatio="xMidYMid meet"
	style="width: 100%; height: 100%; transform: translate3d(0px, 0px, 0px); content-visibility: visible;">
	<defs>
		<clipPath id="__lottie_element_9945">
			<rect width="500" height="500" x="0" y="0"></rect>
		</clipPath>
	</defs>
	<g clip-path="url(#__lottie_element_9945)">
		<g transform="matrix(1,0,0,1,196.6269989013672,330)" opacity="1" style="display: block;">
			<g opacity="1" transform="matrix(1,0,0,1,0,0)">
				<path stroke-linecap="round" stroke-linejoin="round" fill-opacity="0" stroke-dasharray=" 126 64"
					stroke-dashoffset="22" stroke="rgb(18,19,49)" stroke-opacity="1" stroke-width="7"
					d=" M106.74600219726562,0 C106.74600219726562,0 -106.74600219726562,0 -106.74600219726562,0"></path>
			</g>
		</g>
		<g transform="matrix(1,0,0,1,196.6269989013672,250)" opacity="1" style="display: block;">
			<g opacity="1" transform="matrix(1,0,0,1,0,0)">
				<path stroke-linecap="round" stroke-linejoin="round" fill-opacity="0" stroke-dasharray=" 126 64"
					stroke-dashoffset="82" stroke="rgb(18,19,49)" stroke-opacity="1" stroke-width="7"
					d=" M106.74600219726562,0 C106.74600219726562,0 -106.74600219726562,0 -106.74600219726562,0"></path>
			</g>
		</g>
		<g transform="matrix(1,0,0,1,283.43499755859375,335.5780029296875)" opacity="1" style="display: block;">
			<g opacity="1" transform="matrix(1,0,0,1,0,0)">
				<path stroke-linecap="round" stroke-linejoin="round" fill-opacity="0" stroke="rgb(18,19,49)"
					stroke-opacity="1" stroke-width="7"
					d=" M46.49599838256836,33.50400161743164 C47.082000732421875,34.191001892089844 47.70000076293945,34.861000061035156 48.347999572753906,35.512001037597656 C54.06100082397461,41.24700164794922 61.98699951171875,46.86000061035156 79.97799682617188,46.86000061035156 C105.85800170898438,46.86000061035156 126.83799743652344,25.8799991607666 126.83799743652344,0 C126.83799743652344,-25.8799991607666 105.85800170898438,-46.86000061035156 79.97799682617188,-46.86000061035156 C79.97799682617188,-46.86000061035156 -47.49300003051758,-46.755001068115234 -128.32899475097656,-46.68899917602539">
				</path>
			</g>
		</g>
		<g style="display: none;">
			<g>
				<path stroke-linecap="round" stroke-linejoin="round" fill-opacity="0"></path>
			</g>
		</g>
		<g style="display: none;">
			<g>
				<path stroke-linecap="round" stroke-linejoin="round" fill-opacity="0"></path>
			</g>
		</g>
		<g transform="matrix(1,0,0,-1,217.93499755859375,164.0780029296875)" opacity="1" style="display: block;">
			<g opacity="1" transform="matrix(1,0,0,1,0,0)">
				<path stroke-linecap="round" stroke-linejoin="round" fill-opacity="0" stroke="rgb(18,19,49)"
					stroke-opacity="1" stroke-width="7"
					d=" M48.21900177001953,35.38199996948242 C48.262001037597656,35.42499923706055 48.30500030517578,35.46900177001953 48.347999572753906,35.512001037597656 C54.06100082397461,41.24700164794922 61.98699951171875,46.86000061035156 79.97799682617188,46.86000061035156 C105.85800170898438,46.86000061035156 126.83799743652344,25.8799991607666 126.83799743652344,0 C126.83799743652344,-25.8799991607666 105.85800170898438,-46.86000061035156 79.97799682617188,-46.86000061035156 C79.97799682617188,-46.86000061035156 -127.83799743652344,-46.84700012207031 -127.83799743652344,-46.84700012207031">
				</path>
			</g>
		</g>
		<g style="display: none;">
			<g>
				<path stroke-linecap="round" stroke-linejoin="round" fill-opacity="0"></path>
			</g>
		</g>
		<g style="display: none;">
			<g>
				<path stroke-linecap="round" stroke-linejoin="round" fill-opacity="0"></path>
			</g>
		</g>
	</g>
</svg>